<svg width="38" height="38" viewBox="0 0 38 38" fill="none" xmlns="http://www.w3.org/2000/svg">
<path d="M31.9205 29.8745L31.9633 12.2904L23.0682 8.61069L23.0732 8.67353L14.8542 12.7629V12.7428L6.10993 8.60315L6.0119 25.0637L14.6582 29.7488V29.696L23.5859 25.2573L31.918 29.877L31.9205 29.8745ZM14.8492 13.1726L23.1008 9.07065L23.5658 15.6308L23.2441 25.021L14.6657 29.2863L14.8492 13.1726Z" fill="#E5DAC8"/>
<path d="M31.9556 15.4825L31.9355 15.4724L31.9455 17.1589L31.9531 17.164L31.9556 15.4825Z" fill="#F4EADC"/>
<path d="M31.948 17.9004L31.9505 18.2372V17.9029L31.948 17.9004Z" fill="#F4EADC"/>
<path d="M31.9505 18.2372V19.5819L23.7692 15.5503V13.8663L31.948 17.8979V17.1564L23.7692 13.1273V11.4433L31.9354 15.4699V14.7284L23.7692 10.7044V9.02036L31.9229 13.0394V12.5291L23.7692 8.60061V8.46488H23.1283V9.92771L14.9772 12.6975V12.4763H14.4167V14.2182L6.09969 10.1187L6.10975 8.5051L10.556 10.629L6.09969 8.34424L5.96899 25.1416L14.5197 29.5904V29.5175H14.9772V22.5854L23.1283 19.8156V21.4117L15.025 24.1639L15.0501 24.8576L23.1283 22.1129V23.709L15.1054 26.4335L15.1305 27.1272L23.1283 24.4102V25.5086H23.7692V25.4181L25.2924 26.2702L26.612 27.3912L30.0302 28.9218L31.9229 29.9825V29.7714L32.0083 29.8091L31.9505 18.2422V18.2372ZM23.1283 15.221V16.8171L14.9772 19.5844V17.9883L23.1283 15.221ZM14.9772 17.2871V15.6936L23.1283 12.9263V14.5223L14.9772 17.2896V17.2871ZM23.1283 10.629V12.225L14.9772 14.9923V13.3988L23.1283 10.629ZM6.09718 10.8577L14.4167 14.9596V16.6436L6.08713 12.5367L6.09718 10.8577ZM6.0821 13.2756L14.4167 17.3826V19.0666L6.07205 14.9546L6.0821 13.2756ZM6.06702 15.6911L14.4142 19.8056V21.4896L6.05696 17.37L6.06702 15.6911ZM6.05194 18.109L14.4142 22.231V23.9151L6.0444 19.788L6.05445 18.109H6.05194ZM6.03686 20.5269L14.4142 24.6565V26.3405L6.02932 22.2034L6.03937 20.5244L6.03686 20.5269ZM6.02178 22.9449L14.4117 27.0795V28.7635L6.01675 24.6213L6.0268 22.9424L6.02178 22.9449ZM14.9747 21.8842V20.2882L23.1258 17.5208V19.1169L14.9747 21.8867V21.8842ZM31.9204 29.2687L24.5384 25.6292L23.7667 25.2497V23.5657L31.9254 27.5872L31.9204 29.2687ZM31.9254 26.8483L23.7667 22.8267V21.1427L31.9304 25.1668L31.9254 26.8483ZM31.9304 24.4278L23.7642 20.4038V18.7198L31.9329 22.7463L31.9279 24.4278H31.9304ZM31.9354 22.0074L23.7642 17.9808V16.2968L31.9405 20.3259L31.9354 22.0074Z" fill="#F4EADC"/>
<path d="M32.7271 11.843L27.6324 8.97011L23.4701 7.24589C23.3846 7.2107 23.2891 7.21573 23.2087 7.25846L19.1897 9.38986L14.8741 11.4006C14.7484 11.4584 14.6051 11.4609 14.4795 11.4006C13.3484 10.8527 9.06299 8.82685 9.06299 8.82685L5.40341 6.89903C5.27019 6.8186 5.10179 6.91663 5.10431 7.06995L5.4386 20.6652L5.11436 25.8152C5.10682 25.9434 5.18222 26.0641 5.30287 26.1118L10.2418 28.0874L14.482 30.6687C14.5976 30.7391 14.7459 30.7391 14.8615 30.6687L19.8356 27.6651L23.1408 26.5567C23.264 26.5165 23.3972 26.5316 23.5053 26.602L26.8356 28.7133L32.5889 31.1111C32.7372 31.1714 32.898 31.0608 32.8905 30.9025L32.3149 17.8828L32.8829 12.1471C32.8955 12.024 32.8327 11.9033 32.7246 11.843H32.7271ZM13.4263 27.8888L10.8777 26.3003L7.29352 24.8551C7.19801 24.8174 7.1402 24.7219 7.14774 24.6214L7.477 20.7406L6.93661 10.1062C6.92907 9.96795 7.07234 9.86993 7.20052 9.92522L10.6414 11.3805L13.5017 13.15C13.5897 13.2053 13.64 13.3033 13.6324 13.4064L13.3459 17.0232L13.6375 27.7657C13.64 27.8763 13.5193 27.9441 13.4238 27.8863L13.4263 27.8888ZM15.8116 13.16L17.9455 11.667L22.1128 10.0358C22.2033 10.0006 22.3013 10.061 22.3089 10.1565L22.8417 16.3345L22.3013 24.5862C22.2938 24.6867 22.2309 24.7747 22.138 24.8149L18.7046 26.2601L15.8971 27.909C15.8015 27.9668 15.6784 27.9014 15.6708 27.7883L15.1656 18.4383L15.6683 13.3988C15.6784 13.3033 15.7287 13.2153 15.8091 13.16H15.8116ZM24.3649 9.77693L26.8683 10.6466L30.6359 13.057C30.7817 13.1399 30.8621 13.2983 30.8471 13.4616L30.5454 16.6537L31.0532 28.394C31.0557 28.4745 30.9727 28.5298 30.8998 28.4946L27.1573 26.7477L24.4126 24.7872C24.3624 24.7521 24.3322 24.6917 24.3372 24.6289L24.669 19.3532L24.1789 9.91014C24.1764 9.81463 24.2719 9.74426 24.3649 9.77944V9.77693Z" fill="#242A2B"/>
</svg>
