<svg width="38" height="38" viewBox="0 0 38 38" fill="none" xmlns="http://www.w3.org/2000/svg">
<path d="M25.6114 27.29L27.3557 25.5457C27.4914 25.41 27.4844 25.1857 27.3348 25.0633L24.2538 22.2402L21.4783 19.2476C21.3627 19.1184 21.3625 18.9281 21.4847 18.806L24.8475 15.2527L27.3196 13.1615C27.4689 13.0393 27.4822 12.8084 27.3462 12.6723L25.6119 10.938C25.4827 10.8088 25.2788 10.8086 25.1499 10.9375L19.4373 16.6501C19.3084 16.779 19.1046 16.7788 18.9753 16.6496L13.2549 10.9291C13.1257 10.7999 12.9218 10.7997 12.7929 10.9286L11.0486 12.6729C10.9129 12.8086 10.9267 13.0261 11.0627 13.1485L14.307 16.1756L16.7764 18.8622C16.8988 18.9982 16.8854 19.202 16.7497 19.3241L13.9034 21.98L11.0235 25.0503C10.9014 25.1724 10.9084 25.383 11.0308 25.5055L12.7856 27.2602C12.9216 27.3962 13.1458 27.3897 13.2679 27.2403L16.1273 24.1361L18.9805 21.5278C19.1094 21.4124 19.32 21.4194 19.4357 21.5486L22.3334 24.5278L25.1766 27.2895C25.3058 27.4187 25.5164 27.4122 25.6386 27.29L25.6114 27.29Z" fill="#242A2B"/>
</svg>
