<svg width="46" height="46" viewBox="0 0 46 46" fill="none" xmlns="http://www.w3.org/2000/svg">
<rect width="46" height="46" rx="4" fill="#BFDABA"/>
<g clip-path="url(#clip0_1842_6569)">
<path d="M38.0388 18.9433C38.3572 19.0941 38.7627 19.0908 39.195 18.759C39.2084 18.7489 39.2251 18.7322 39.2352 18.7188C39.8116 17.9245 39.2721 17.0398 38.4979 17.0096C37.9383 16.9895 37.4657 17.4252 37.4456 17.9848C37.4456 18.0351 37.449 18.082 37.4557 18.1289L36.4235 18.5143C36.3699 18.5345 36.3129 18.5244 36.2693 18.4875L35.532 17.8776C35.4851 17.8407 35.465 17.7771 35.4784 17.7201L35.8068 16.3762C35.8068 16.3762 35.827 16.3796 35.8337 16.3796C36.7351 16.4131 37.4356 15.4044 36.772 14.4325C36.762 14.4157 36.7452 14.4023 36.7318 14.3889C35.8102 13.6584 34.7545 14.2783 34.721 15.1798C34.711 15.4111 34.7747 15.6256 34.8852 15.8099C34.9188 15.8668 34.9188 15.9339 34.8819 15.9875L34.0541 17.1437C34.0173 17.1939 33.9569 17.2174 33.8966 17.2074L33.3671 17.1068C33.2934 17.0934 33.2398 17.0297 33.2398 16.956L33.2063 15.6993C33.2063 15.6423 33.2331 15.5954 33.28 15.5619C33.786 15.2301 34.0273 14.5196 33.5447 13.8058C33.5347 13.7891 33.5179 13.7757 33.5045 13.7622C32.5829 13.0283 31.5273 13.6517 31.4938 14.5531C31.477 14.9754 31.6915 15.3541 32.0233 15.5686C32.0869 15.6088 32.1171 15.6859 32.0903 15.7563L31.4971 17.2442C31.4401 17.3816 31.2424 17.3749 31.1989 17.2308L30.1097 13.464C30.103 13.4338 30.0862 13.4104 30.0628 13.3903L25.5721 9.41566C25.5453 9.38885 25.5084 9.37544 25.4682 9.37544L21.5103 9.34863C21.4735 9.34863 21.44 9.36204 21.4098 9.38215L17.2542 12.7066C17.2542 12.7066 17.2308 12.7301 17.2207 12.7435L15.22 15.8568C15.2066 15.8802 15.1966 15.9071 15.1966 15.9339L15.153 16.946C15.1463 17.1068 14.9285 17.1537 14.8547 17.0096L14.027 15.3809C13.9901 15.3105 14.0169 15.2301 14.0772 15.1832C14.6067 14.7743 14.7743 13.9432 14.1309 13.2596C14.1175 13.2462 14.1007 13.2327 14.0839 13.2227C13.0048 12.6161 12.0162 13.4405 12.1369 14.3789C12.1871 14.781 12.4318 15.1095 12.7635 15.2871C12.8172 15.3172 12.854 15.3709 12.8507 15.4345L12.787 16.8086C12.787 16.8756 12.7367 16.9359 12.6731 16.9527L12.2743 17.0632C12.2139 17.08 12.1536 17.0632 12.1134 17.013L11.108 15.8434C11.0712 15.7998 11.0611 15.7395 11.0812 15.6859C11.2287 15.2703 11.165 14.7643 10.6891 14.2951C10.6757 14.2817 10.6589 14.2683 10.6422 14.2616C9.58319 13.7053 8.62138 14.5163 8.73867 15.4412C8.81911 16.0679 9.35866 16.5203 9.97864 16.5002C10.0423 16.5002 10.1026 16.5304 10.1295 16.5907L10.659 17.7369C10.6858 17.7972 10.6724 17.8675 10.6254 17.9145L9.91497 18.6182C9.87475 18.6584 9.81778 18.6719 9.76416 18.6584L8.64819 18.3501C8.64819 18.2999 8.64819 18.2496 8.64484 18.1993C8.54095 17.3783 7.52552 16.8923 6.74132 17.6363C6.72792 17.6497 6.71451 17.6665 6.70446 17.6832C6.18166 18.6249 6.90218 19.4896 7.72324 19.3857C7.86735 19.3689 7.99804 19.3186 8.11534 19.2516C8.17901 19.2148 8.25609 19.2181 8.30971 19.2684L10.3741 21.192C10.4311 21.2456 10.3976 21.3395 10.3205 21.3428L9.82448 21.3663C9.76081 21.3663 9.70384 21.4132 9.68373 21.4735L7.61265 27.6465C7.59254 27.7069 7.61265 27.7739 7.65622 27.8141L11.5906 31.286C11.7112 31.3933 11.6141 31.5876 11.4566 31.5575L9.83789 31.2525C9.77086 31.2391 9.72395 31.1855 9.71389 31.1218C9.6033 30.5152 8.97997 30.0427 8.16561 30.3276C8.1455 30.3343 8.12874 30.3443 8.11199 30.3577C7.24401 31.0146 7.55568 32.1037 8.35663 32.3417C8.6817 32.4389 9.01683 32.3752 9.27823 32.1942C9.32179 32.164 9.37542 32.154 9.42568 32.1741L11.2387 32.8779C11.3895 32.9348 11.3627 33.156 11.2052 33.1795L9.22126 33.4744L9.1978 33.5113C8.95651 32.8075 8.06842 32.4154 7.25742 33.0488C7.24066 33.0622 7.22725 33.0756 7.2172 33.0923C6.5503 34.0676 7.25071 35.0763 8.1522 35.0428C8.54765 35.0294 8.88948 34.8115 9.08386 34.4999C9.11402 34.4496 9.16764 34.4195 9.22461 34.4228L19.2449 34.8585C19.3153 34.8585 19.3789 34.8183 19.3991 34.7546L20.2536 32.2847C20.2838 32.1942 20.391 32.1506 20.4782 32.1976L23.1592 33.6621C23.2027 33.6855 23.2597 33.6889 23.3033 33.6621L25.6156 32.5159C25.6994 32.4724 25.8033 32.5159 25.8335 32.6064L26.5372 34.6373C26.5607 34.7043 26.6244 34.7445 26.6914 34.7412L36.7251 34.2921C36.7821 34.2921 36.8357 34.3189 36.8658 34.3692C37.1909 34.8886 37.9081 35.1366 38.632 34.654C38.6487 34.644 38.6655 34.6272 38.6755 34.6138C39.4095 33.6922 38.7861 32.6332 37.8846 32.5997C37.3618 32.5796 36.9128 32.9114 36.7519 33.3806L36.7284 33.3437L34.7445 33.0488C34.5836 33.0253 34.5602 32.8041 34.711 32.7472L36.524 32.0434C36.5743 32.0233 36.6279 32.0333 36.6715 32.0635C37.1138 32.3752 37.7841 32.345 38.2432 31.7384C38.2533 31.7217 38.2667 31.7049 38.27 31.6848C38.6387 30.6593 37.7774 29.9221 36.9764 30.16C36.5776 30.2806 36.3028 30.6091 36.2325 30.9911C36.2191 31.0581 36.1721 31.1118 36.1051 31.1252L34.4898 31.4301C34.3323 31.4603 34.2385 31.2626 34.3557 31.1587L38.2734 27.7002C38.3203 27.6599 38.3371 27.5929 38.3169 27.5326L36.2459 21.3596C36.2258 21.2992 36.1688 21.2557 36.1051 21.2523L35.8337 21.2389L37.8511 18.9701C37.898 18.9165 37.9718 18.9064 38.0354 18.9366L38.0388 18.9433ZM11.1985 20.4212L11.232 19.379C11.232 19.3287 11.2588 19.2851 11.299 19.255L13.722 17.5592C13.7924 17.5123 13.8862 17.5257 13.9365 17.5927L15.0592 19.0841L15.0659 19.064L14.9854 20.9708C14.9821 21.0513 14.9184 21.1183 14.838 21.1216L12.3849 21.2423C12.3513 21.2423 12.3178 21.2356 12.291 21.2155L11.2722 20.5486C11.2253 20.5184 11.1985 20.4681 11.2019 20.4112L11.1985 20.4212ZM18.3568 33.4208L15.9674 33.3135C15.9305 33.3135 15.8936 33.2968 15.8668 33.27L9.51282 27.1874C9.4659 27.1439 9.45249 27.0735 9.47595 27.0165L10.9572 23.3335C10.9773 23.2798 11.0276 23.243 11.0846 23.2363L15.1094 22.8006C15.1765 22.7939 15.2401 22.8308 15.2703 22.8911L19.0706 31.1084C19.0874 31.1419 19.0907 31.1788 19.0807 31.2156L18.5177 33.3068C18.4976 33.3772 18.4339 33.4275 18.3602 33.4241L18.3568 33.4208ZM20.6725 29.9924L16.8688 22.0097C16.8588 21.9863 16.8521 21.9628 16.8521 21.9393L16.966 16.584C16.966 16.5539 16.9761 16.5237 16.9928 16.4969L18.7556 13.9365C18.7556 13.9365 18.7757 13.9097 18.7891 13.8997L22.2041 11.2991C22.2309 11.279 22.2644 11.2656 22.2979 11.2656H24.7041C24.741 11.2656 24.7778 11.279 24.808 11.3058L28.3067 14.3789C28.3302 14.399 28.3436 14.4224 28.3536 14.4526L29.8181 19.3321C29.8181 19.3321 29.8248 19.3656 29.8248 19.3823L29.7109 22.318C29.7109 22.3415 29.7042 22.3616 29.6941 22.3851L25.6022 30.3678C25.5855 30.3979 25.562 30.4214 25.5319 30.4381L23.3569 31.4837C23.31 31.5072 23.2564 31.5038 23.2094 31.477L20.7329 30.0595C20.706 30.0427 20.6826 30.0192 20.6692 29.9924H20.6725ZM36.4603 27.0735L29.4461 33.1225C29.4193 33.146 29.3892 33.156 29.3557 33.1594L27.5728 33.2968C27.4991 33.3035 27.4287 33.2532 27.4086 33.1795L27.0533 31.8591C27.0433 31.8222 27.0466 31.782 27.0634 31.7485L31.4971 22.8509C31.5273 22.7906 31.5876 22.757 31.6546 22.7637L35.026 23.1223C35.0863 23.129 35.1366 23.1693 35.1567 23.2229L36.5039 26.8925C36.5274 26.9528 36.5073 27.0232 36.4603 27.0668V27.0735ZM31.7116 20.8803L31.7987 19.4862C31.7987 19.4661 31.8054 19.446 31.8121 19.4292L32.4556 18.0787C32.4924 18.005 32.5796 17.9681 32.6567 18.0016L35.1064 18.9768C35.1601 19.0003 35.2003 19.0505 35.2036 19.1075L35.3008 20.2302C35.3042 20.2838 35.284 20.3341 35.2438 20.3676L34.2854 21.1283C34.2552 21.1518 34.2183 21.1652 34.1815 21.1618L31.8624 21.0479C31.7753 21.0445 31.7082 20.9675 31.7149 20.8803H31.7116Z" fill="#242A2B"/>
</g>
<defs>
<clipPath id="clip0_1842_6569">
<rect x="4" y="4" width="38" height="38" rx="19" fill="white"/>
</clipPath>
</defs>
</svg>
