<svg width="46" height="46" viewBox="0 0 46 46" fill="none" xmlns="http://www.w3.org/2000/svg">
<rect width="46" height="46" rx="4" fill="#EA9D9D"/>
<g clip-path="url(#clip0_1842_6585)">
<path d="M29.6137 18.511L38.8532 21.7584C38.9302 21.7852 39.014 21.7416 39.0375 21.6612L40.5925 15.9138C40.5992 15.8903 40.5992 15.8668 40.5925 15.8467L39.2955 10.0189C39.2788 9.94516 39.205 9.89489 39.128 9.91165L37.4021 10.2635C37.325 10.2803 37.2747 10.3574 37.2915 10.4344L38.5851 15.8434C38.5918 15.8668 38.5918 15.8903 38.5851 15.9138L37.697 19.0774C37.6769 19.1544 37.5964 19.198 37.5193 19.1745L29.4126 16.708C29.3892 16.7013 29.3624 16.7013 29.3356 16.708L27.7839 17.1035C27.7102 17.1236 27.6331 17.08 27.613 17.0063L27.4857 16.5572C27.4656 16.4902 27.4991 16.4232 27.5594 16.393L28.6184 15.8735C28.6385 15.8635 28.662 15.8568 28.6854 15.8601L33.6285 16.0813C33.7123 16.0847 33.7793 16.0143 33.776 15.9305L33.528 11.594C33.528 11.5739 33.5213 11.5571 33.5146 11.537L32.1707 8.8761C32.1339 8.80573 32.0467 8.77892 31.9764 8.81578L30.542 9.59998C30.475 9.63684 30.4482 9.71727 30.4817 9.7843L31.5742 12.0632C31.5742 12.0632 31.5876 12.0967 31.5876 12.1168L31.7049 13.97C31.7116 14.0505 31.6446 14.1208 31.5642 14.1208H28.0118C27.9816 14.1208 27.9515 14.1309 27.928 14.1476L26.7886 14.9888C26.7283 15.0324 26.6411 15.0223 26.5942 14.9654L26.2021 14.4828C26.1753 14.4493 26.1653 14.4057 26.1753 14.3621L26.3898 13.3735C26.3965 13.3433 26.3898 13.3132 26.3797 13.283L25.6559 11.7146C25.6224 11.6442 25.5386 11.6141 25.4682 11.6442L23.8797 12.3648C23.8093 12.3949 23.7792 12.4754 23.806 12.5457L24.0607 13.1791C24.0975 13.2696 24.0305 13.3702 23.9333 13.3735L22.2074 13.4104C22.1035 13.4104 22.0332 13.3065 22.0767 13.2093L22.3616 12.5893C22.3951 12.5156 22.3616 12.4318 22.2878 12.4016L20.5117 11.6442C20.4413 11.6141 20.3575 11.6442 20.3274 11.718L19.6504 13.2864C19.637 13.3199 19.6336 13.3567 19.6504 13.3903L20.0827 14.5531C20.0961 14.59 20.0928 14.6336 20.076 14.6671L19.8816 15.0357C19.8448 15.1095 19.7509 15.1329 19.6806 15.0894L18.263 14.1912C18.2395 14.1778 18.2161 14.1711 18.1893 14.1678L14.5699 14.0974C14.4861 14.0974 14.4224 14.0236 14.4325 13.9432L14.6235 12.0732C14.6235 12.0565 14.6302 12.0397 14.6369 12.0229L15.8032 9.67371C15.84 9.59998 15.8032 9.50949 15.7294 9.47933L14.0538 8.79567C13.9868 8.76886 13.9063 8.79567 13.8728 8.8627L12.5591 11.4934C12.5591 11.4934 12.5457 11.527 12.5457 11.5471L12.2139 15.9104C12.2072 15.9975 12.281 16.0679 12.3648 16.0612L17.643 15.6457C17.6698 15.6457 17.7 15.649 17.7234 15.6624L19.0338 16.393C19.0941 16.4265 19.1209 16.5036 19.0974 16.5673L18.7958 17.3246C18.7657 17.3984 18.6819 17.4319 18.6082 17.4017L16.6577 16.574C16.6276 16.5606 16.5907 16.5606 16.5605 16.5706L8.46723 19.1678C8.39015 19.1913 8.30972 19.1477 8.28961 19.0707L7.40488 15.9071C7.39818 15.8836 7.39818 15.8601 7.40488 15.8367L8.69847 10.4277C8.71858 10.3507 8.66831 10.2736 8.58788 10.2568L6.86197 9.90494C6.7849 9.88819 6.71117 9.93846 6.69441 10.0122L5.39747 15.84C5.39412 15.8635 5.39412 15.887 5.39747 15.9071L6.95246 21.6545C6.97257 21.7349 7.05635 21.7785 7.13343 21.7517L16.5605 18.5009C16.5873 18.4909 16.6175 18.4909 16.6443 18.5009L18.3803 19.0003C18.4406 19.017 18.4842 19.074 18.4808 19.1377V19.5063C18.4775 19.5834 18.4138 19.6471 18.3367 19.6471H15.8534C15.8266 19.6471 15.7964 19.6571 15.773 19.6705L7.18034 25.4615C7.12672 25.4984 7.10327 25.5688 7.12672 25.6291L11.7783 37.5763C11.8051 37.6467 11.8855 37.6836 11.9559 37.6568L13.5846 37.0837C13.6617 37.0569 13.6986 36.9731 13.6684 36.8994L9.56309 26.4233C9.53964 26.363 9.56309 26.2926 9.61336 26.2558L16.4701 21.5472C16.4902 21.5338 16.5136 21.5238 16.5371 21.5238L18.8126 21.3361C18.8696 21.3328 18.9265 21.3629 18.9533 21.4165L19.1108 21.7483C19.1444 21.8187 19.1176 21.8991 19.0472 21.936L14.5062 24.2819C14.4559 24.3087 14.4258 24.359 14.4291 24.4159L15.1899 36.4269C15.1932 36.5039 15.2636 36.5643 15.3407 36.5576L16.9258 36.4537C17.0029 36.447 17.0632 36.3799 17.0565 36.3029L16.2824 25.2705C16.279 25.2169 16.3058 25.1633 16.3528 25.1364L19.8381 23.1525C19.8917 23.1223 19.9587 23.129 20.0023 23.1726L20.3575 23.501C20.4245 23.5613 20.4178 23.6686 20.3441 23.7222L17.9279 25.3978C17.891 25.4247 17.8675 25.4682 17.8675 25.5151V30.9375L17.8742 30.9811L19.4627 36.0448C19.4728 36.0716 19.4895 36.0951 19.5097 36.1152L22.9246 38.7794C22.9749 38.8197 23.0486 38.8197 23.0989 38.7794L26.5138 36.1152C26.5373 36.0984 26.554 36.0716 26.5607 36.0448L28.0855 30.9844L28.0922 30.9442V25.5185C28.0922 25.4716 28.0688 25.428 28.0319 25.4012L25.9407 23.9501C25.867 23.8998 25.8603 23.7892 25.9273 23.7289L26.4434 23.2631C26.4903 23.2195 26.5641 23.2128 26.6177 23.2497L29.5232 25.1767C29.5668 25.2068 29.5903 25.2571 29.5869 25.3074L28.4776 36.2995C28.4709 36.3799 28.5279 36.4503 28.6083 36.4537L30.351 36.5676C30.4281 36.571 30.4951 36.514 30.5018 36.4369L31.4971 24.3422C31.5005 24.2852 31.4703 24.2316 31.42 24.2048L27.3013 22.0834L27.6365 21.4534C27.6633 21.4065 27.7102 21.3763 27.7638 21.3797L29.5132 21.4266C29.54 21.4266 29.5668 21.4366 29.5903 21.4534L36.3531 26.2658C36.4067 26.3027 36.4268 26.3731 36.4034 26.4334L32.3618 36.9128C32.3316 36.9865 32.3718 37.0703 32.4455 37.0971L34.0742 37.6702C34.148 37.697 34.2251 37.6601 34.2519 37.5864L38.8364 25.6391C38.8599 25.5788 38.8364 25.5084 38.7828 25.4716L30.2303 19.828C30.2069 19.8146 30.1801 19.8046 30.1533 19.8046L28.1123 19.7878C28.0353 19.7878 27.9749 19.7275 27.9716 19.6504L27.9548 18.9198C27.9548 18.8495 28.0018 18.7891 28.0721 18.7791L29.5199 18.5143C29.5433 18.511 29.5701 18.5143 29.5936 18.521L29.6137 18.511ZM23.9802 15.3474L24.8415 15.9774C24.8583 15.9908 24.875 16.0076 24.8851 16.0277L25.5888 17.3984L25.6022 17.4352L25.9876 19.4091C25.991 19.4326 25.9876 19.456 25.9843 19.4795L25.4715 21.1116C25.4715 21.1116 25.4615 21.1417 25.4514 21.1518L24.684 22.1974L24.6572 22.2275L24.1813 22.5928C24.1579 22.6129 24.1277 22.623 24.0942 22.623H22.4085C22.375 22.623 22.3415 22.6096 22.3147 22.5895L21.9025 22.2275L21.8823 22.2041L21.1116 21.1551C21.1116 21.1551 21.0948 21.1283 21.0914 21.1149L20.5787 19.4829C20.572 19.4594 20.572 19.4359 20.5754 19.4125L20.9607 17.4386L20.9742 17.4017L21.6779 16.0311C21.688 16.0109 21.7014 15.9942 21.7215 15.9808L22.5828 15.3507C22.6062 15.334 22.6364 15.3239 22.6665 15.3239H23.8965C23.9266 15.3239 23.9568 15.334 23.9802 15.3507V15.3474ZM26.239 30.7197L24.9085 34.8618C24.8985 34.8886 24.8817 34.9121 24.8616 34.9288L23.119 36.2794C23.0687 36.3196 22.9983 36.3196 22.9447 36.2794L21.202 34.9288C21.1786 34.9121 21.1652 34.8886 21.1551 34.8618L19.761 30.7197C19.761 30.7197 19.7543 30.6895 19.7543 30.6761V26.5641C19.7543 26.5205 19.7744 26.4769 19.8113 26.4501L22.0298 24.7846C22.0533 24.7678 22.0834 24.7578 22.1136 24.7578H23.8831C23.9132 24.7578 23.9434 24.7678 23.9668 24.7846L26.1854 26.4501C26.2222 26.4769 26.2423 26.5172 26.2423 26.5641V30.6761C26.2423 30.6761 26.2423 30.7062 26.2356 30.7197H26.239Z" fill="#242A2B"/>
</g>
<defs>
<clipPath id="clip0_1842_6585">
<rect width="38" height="38" fill="white" transform="translate(4 4)"/>
</clipPath>
</defs>
</svg>
