<svg width="36" height="37" viewBox="0 0 36 37" fill="none" xmlns="http://www.w3.org/2000/svg">
<path d="M35.8802 18.4987C35.8802 8.6903 27.9301 0.740234 18.1217 0.740234C8.31335 0.740234 0.363281 8.6903 0.363281 18.4987C0.363281 27.3627 6.85727 34.7094 15.347 36.0408V23.6307H10.8387V18.4962H15.347V14.5835C15.347 10.1337 17.997 7.67459 22.0548 7.67459C23.9971 7.67459 26.0311 8.0208 26.0311 8.0208V12.3917H23.7909C21.5838 12.3917 20.8965 13.7612 20.8965 15.1639V18.4962H25.8223L25.0357 23.6307H20.899V36.0408C29.3888 34.7094 35.8828 27.3627 35.8828 18.4987H35.8802Z" fill="#797124"/>
<path d="M25.033 23.6334L25.8196 18.4988H20.8938V15.1666C20.8938 13.7614 21.5811 12.3943 23.7882 12.3943H26.0284V8.02345C26.0284 8.02345 23.9969 7.67725 22.052 7.67725C17.9943 7.67725 15.3443 10.1363 15.3443 14.5861V18.4988H10.8359V23.6334H15.3443V36.0434C16.248 36.186 17.1746 36.2598 18.119 36.2598C19.0634 36.2598 19.9901 36.186 20.8938 36.0434V23.6334H25.0305H25.033Z" fill="#FEFAF4"/>
</svg>
