<svg width="37" height="36" viewBox="0 0 37 36" fill="none" xmlns="http://www.w3.org/2000/svg">
<path d="M36.0339 17.7585C36.0339 7.95007 28.0838 0 18.2754 0C8.46701 0 0.516933 7.95007 0.516933 17.7585C0.516933 26.6224 7.01092 33.9692 15.5007 35.3005V22.8905H10.9923V17.7559H15.5007V13.8433C15.5007 9.39345 18.1507 6.93435 22.2084 6.93435C24.1508 6.93435 26.1848 7.28056 26.1848 7.28056V11.6514H23.9446C21.7375 11.6514 21.0501 13.021 21.0501 14.4237V17.7559H25.976L25.1894 22.8905H21.0527V35.3005C29.5424 33.9692 36.0364 26.6224 36.0364 17.7585H36.0339Z" fill="#242A2B"/>
<path d="M25.1869 22.8932L25.9735 17.7586H21.0477V14.4263C21.0477 13.0211 21.735 11.6541 23.9421 11.6541H26.1822V7.28322C26.1822 7.28322 24.1508 6.93701 22.2059 6.93701C18.1481 6.93701 15.4982 9.39611 15.4982 13.8459V17.7586H10.9898V22.8932H15.4982V35.3032C16.4019 35.4458 17.3284 35.5196 18.2729 35.5196C19.2173 35.5196 20.144 35.4458 21.0477 35.3032V22.8932H25.1844H25.1869Z" fill="#F8F1E4"/>
</svg>
