<svg width="37" height="37" viewBox="0 0 37 37" fill="none" xmlns="http://www.w3.org/2000/svg">
<path d="M18.6042 36.2572C28.4119 36.2572 36.3626 28.3064 36.3626 18.4987C36.3626 8.69097 28.4119 0.740234 18.6042 0.740234C8.79644 0.740234 0.845703 8.69097 0.845703 18.4987C0.845703 28.3064 8.79644 36.2572 18.6042 36.2572Z" fill="#797124"/>
<path d="M24.1183 11.7798C23.4437 11.7798 22.8965 12.3271 22.8965 13.0017C22.8965 13.6763 23.4437 14.2236 24.1183 14.2236C24.7929 14.2236 25.3403 13.6763 25.3403 13.0017C25.3403 12.3271 24.7929 11.7798 24.1183 11.7798Z" fill="#FEFAF4"/>
<path d="M18.6895 13.3457C15.8613 13.3457 13.5625 15.647 13.5625 18.4726C13.5625 21.2983 15.8638 23.5996 18.6895 23.5996C21.5151 23.5996 23.8164 21.2983 23.8164 18.4726C23.8164 15.647 21.5151 13.3457 18.6895 13.3457ZM18.6895 21.7591C16.877 21.7591 15.4055 20.2851 15.4055 18.4752C15.4055 16.6652 16.8795 15.1913 18.6895 15.1913C20.4994 15.1913 21.9733 16.6652 21.9733 18.4752C21.9733 20.2851 20.4994 21.7591 18.6895 21.7591Z" fill="#FEFAF4"/>
<path d="M22.7602 28.8845H14.446C10.9967 28.8845 8.19141 26.0792 8.19141 22.6298V14.3157C8.19141 10.8663 10.9967 8.06104 14.446 8.06104H22.7602C26.2095 8.06104 29.0148 10.8663 29.0148 14.3157V22.6298C29.0148 26.0792 26.2095 28.8845 22.7602 28.8845ZM14.446 10.0212C12.0786 10.0212 10.1515 11.9482 10.1515 14.3157V22.6298C10.1515 24.9973 12.0786 26.9243 14.446 26.9243H22.7602C25.1276 26.9243 27.0546 24.9973 27.0546 22.6298V14.3157C27.0546 11.9457 25.1276 10.0212 22.7602 10.0212H14.446Z" fill="#FEFAF4"/>
</svg>
