<svg width="36" height="36" viewBox="0 0 36 36" fill="none" xmlns="http://www.w3.org/2000/svg">
<path d="M17.7585 35.5169C27.5662 35.5169 35.5169 27.5662 35.5169 17.7585C35.5169 7.95074 27.5662 0 17.7585 0C7.95074 0 0 7.95074 0 17.7585C0 27.5662 7.95074 35.5169 17.7585 35.5169Z" fill="#242A2B"/>
<path d="M23.271 11.0396C22.5964 11.0396 22.0491 11.5869 22.0491 12.2615C22.0491 12.9361 22.5964 13.4834 23.271 13.4834C23.9456 13.4834 24.4929 12.9361 24.4929 12.2615C24.4929 11.5869 23.9456 11.0396 23.271 11.0396Z" fill="#F8F1E4"/>
<path d="M17.8438 12.6055C15.0155 12.6055 12.7168 14.9067 12.7168 17.7324C12.7168 20.5581 15.0181 22.8594 17.8438 22.8594C20.6694 22.8594 22.9707 20.5581 22.9707 17.7324C22.9707 14.9067 20.6694 12.6055 17.8438 12.6055ZM17.8438 21.0189C16.0312 21.0189 14.5598 19.5449 14.5598 17.735C14.5598 15.925 16.0338 14.4511 17.8438 14.4511C19.6537 14.4511 21.1276 15.925 21.1276 17.735C21.1276 19.5449 19.6537 21.0189 17.8438 21.0189Z" fill="#F8F1E4"/>
<path d="M21.9136 28.1442H13.5995C10.1501 28.1442 7.34484 25.3389 7.34484 21.8896V13.5755C7.34484 10.1261 10.1501 7.3208 13.5995 7.3208H21.9136C25.363 7.3208 28.1683 10.1261 28.1683 13.5755V21.8896C28.1683 25.3389 25.363 28.1442 21.9136 28.1442ZM13.5995 9.28095C11.232 9.28095 9.30498 11.208 9.30498 13.5755V21.8896C9.30498 24.257 11.232 26.1841 13.5995 26.1841H21.9136C24.2811 26.1841 26.2081 24.257 26.2081 21.8896V13.5755C26.2081 11.2055 24.2811 9.28095 21.9136 9.28095H13.5995Z" fill="#F8F1E4"/>
</svg>
