<svg width="46" height="46" viewBox="0 0 46 46" fill="none" xmlns="http://www.w3.org/2000/svg">
<rect width="46" height="46" rx="4" fill="#EEB67E"/>
<g clip-path="url(#clip0_1842_6597)">
<path d="M41.5141 28.2632C41.5141 28.2297 41.4973 28.1961 41.4739 28.1727L36.028 22.6096C36.028 22.6096 36.0079 22.5928 35.9945 22.5861L27.489 17.8709C27.3818 17.8106 27.3952 17.6564 27.5125 17.6162L28.3 17.3414C28.3168 17.3347 28.3335 17.3313 28.3536 17.3347L32.0668 17.5056C32.1473 17.509 32.2143 17.4453 32.2143 17.3649V15.897C32.2143 15.8199 32.1506 15.7563 32.0735 15.7563H27.8577C27.8376 15.7563 27.8208 15.7596 27.804 15.7663L25.7128 16.6544C25.6291 16.6913 25.5352 16.6376 25.5185 16.5471L25.3006 15.2435C25.2939 15.1999 25.3073 15.153 25.3409 15.1229L28.4106 12.0162C28.4106 12.0162 28.4173 12.0095 28.4207 12.0062L33.3403 8.00142C33.4007 7.9545 33.4107 7.86737 33.3638 7.80705L32.4791 6.63075C32.4321 6.56708 32.3383 6.55702 32.278 6.60729L27.3114 10.659C27.3114 10.659 27.3013 10.669 27.298 10.6724L24.4896 13.7187C24.4628 13.7488 24.426 13.7656 24.3857 13.7656H21.9058C21.8589 13.7656 21.8187 13.7421 21.7919 13.7053L19.7141 10.7964C19.7141 10.7964 19.6973 10.7763 19.6873 10.7696L14.4291 6.60059C14.3655 6.55032 14.275 6.56373 14.2281 6.6274L13.3467 7.8037C13.2998 7.86402 13.3132 7.95115 13.3735 7.99807L18.397 11.9358C18.397 11.9358 18.4138 11.9526 18.4238 11.9626L20.8032 15.1095C20.8301 15.1463 20.8401 15.1899 20.8267 15.2335L20.4011 16.7281L20.3776 16.7415L18.0418 15.6658C18.025 15.6591 18.0049 15.6524 17.9848 15.6524L14.2951 15.5786C14.2147 15.5786 14.151 15.6423 14.151 15.7194V17.1906C14.151 17.2677 14.2147 17.3313 14.2917 17.3313L17.7201 17.3246C17.7201 17.3246 17.7502 17.3246 17.7636 17.3313L18.5612 17.5961C18.6785 17.6363 18.6919 17.7938 18.5847 17.8541L10.0055 22.5258C10.0055 22.5258 9.98201 22.5426 9.97195 22.5526L4.52615 28.1124C4.50269 28.1358 4.48928 28.1693 4.48593 28.2029L4.2614 32.5561C4.2614 32.6165 4.29156 32.6701 4.34518 32.6935L8.60799 34.5133C8.63145 34.5233 8.65491 34.5267 8.67837 34.5233L14.1845 33.9402C14.2515 33.9335 14.3118 33.9737 14.332 34.0374L15.0525 36.266C15.0692 36.3129 15.1061 36.3498 15.153 36.3598L18.4641 37.144C18.5043 37.1541 18.5445 37.144 18.578 37.1206L22.8877 34.0575C22.938 34.024 23.0017 34.024 23.0519 34.0575L27.3617 37.1206C27.3952 37.144 27.4354 37.1507 27.4756 37.144L30.7867 36.3598C30.8336 36.3498 30.8738 36.3129 30.8872 36.266L31.6312 33.9938C31.6513 33.9302 31.715 33.8899 31.782 33.8967L37.2613 34.52C37.2848 34.52 37.3082 34.52 37.3317 34.5099L41.6515 32.7472C41.7084 32.7237 41.742 32.6701 41.7386 32.6098L41.5141 28.2598V28.2632ZM22.1337 16.2656L22.4688 15.334C22.4889 15.277 22.5426 15.2402 22.6029 15.2402H23.4574C23.5178 15.2402 23.5714 15.277 23.5915 15.334L23.9266 16.2656C23.9601 16.3561 23.8931 16.4533 23.7926 16.4533H22.2677C22.1706 16.4533 22.1035 16.3561 22.1337 16.2656ZM14.4861 31.8892C14.4627 31.9094 14.4358 31.9228 14.4057 31.9261L8.93641 32.5695C8.91295 32.5695 8.8895 32.5696 8.86604 32.5595L6.17497 31.4837C6.118 31.4603 6.08114 31.4033 6.08784 31.343L6.25205 28.9569C6.25205 28.9234 6.26881 28.8932 6.29227 28.8698L10.9673 24.0104C10.9673 24.0104 10.9874 23.9903 11.0008 23.9836L21.2858 18.2295C21.316 18.2127 21.3529 18.206 21.3864 18.2161L22.0935 18.3803L22.06 18.4875L20.8133 20.8803C20.8133 20.8803 20.8032 20.9004 20.7999 20.9138L19.2885 27.298C19.2818 27.3248 19.2684 27.3483 19.2483 27.3684L14.4828 31.8892H14.4861ZM22.0365 32.288L18.2261 35.1869C18.1926 35.2137 18.149 35.2204 18.1088 35.2103L16.5538 34.835C16.5069 34.825 16.4701 34.7881 16.4533 34.7445L15.9607 33.2934C15.9439 33.2398 15.9573 33.1828 15.9975 33.146L20.9473 28.4743C20.9675 28.4542 20.9842 28.4274 20.9876 28.3972L21.373 26.3328C21.3797 26.2893 21.4165 26.2591 21.4601 26.2591H22.003C22.0533 26.2591 22.0901 26.2993 22.0901 26.3463V32.1741C22.0901 32.2177 22.07 32.2612 22.0332 32.288H22.0365ZM29.9589 33.2633L29.483 34.7412C29.4696 34.7881 29.4294 34.825 29.3825 34.835L27.8275 35.2103C27.7873 35.2204 27.7437 35.2103 27.7102 35.1869L23.8998 32.288C23.8663 32.2612 23.8428 32.221 23.8428 32.1775V26.3496C23.8428 26.2993 23.8831 26.2625 23.93 26.2625H24.4394C24.4829 26.2625 24.5198 26.2926 24.5265 26.3362L24.8884 28.3436C24.8951 28.3738 24.9085 28.4006 24.932 28.4207L28.7357 31.9898L29.922 33.1225C29.9623 33.1594 29.9757 33.2163 29.9589 33.2666V33.2633ZM39.8317 31.6345L37.1139 32.6098C37.0937 32.6165 37.0736 32.6198 37.0502 32.6165L31.5843 32.0367C31.5541 32.0367 31.5239 32.0199 31.5038 31.9998L26.5875 27.4321C26.5674 27.412 26.5507 27.3885 26.5473 27.3583L25.0828 20.7396C25.0828 20.7396 25.0761 20.7161 25.0694 20.7027L23.9333 18.5546C23.8898 18.4741 23.9333 18.3769 24.0205 18.3535L24.4963 18.2194C24.5332 18.2094 24.5701 18.2127 24.6036 18.2328L34.8149 23.9937C34.8149 23.9937 34.835 24.0071 34.845 24.0171L39.7781 28.9267C39.8016 28.9502 39.8183 28.9837 39.8183 29.0206L39.9289 31.4938C39.9289 31.5541 39.8954 31.6111 39.8351 31.6312L39.8317 31.6345Z" fill="#242A2B"/>
</g>
<defs>
<clipPath id="clip0_1842_6597">
<rect width="38" height="38" fill="white" transform="translate(4 4)"/>
</clipPath>
</defs>
</svg>
