<svg width="38" height="38" viewBox="0 0 38 38" fill="none" xmlns="http://www.w3.org/2000/svg">
<g clip-path="url(#clip0_1838_7076)">
<path d="M25.9187 14.1591L19.9099 15.3923L15.3823 21.0727L16.438 25.4059L10.8413 28.4924L6.62545 22.7115L15.2013 17.641L18.3716 13.2274L22.3999 6.51147L25.9187 14.1591Z" fill="#E5DAC8"/>
<path d="M22.0781 7.32922L21.8704 7.61743L22.7115 8.03299L22.0781 7.32922Z" fill="#F4EADC"/>
<path d="M10.4124 28.7203L10.7307 28.5025L10.1242 28.2042L10.4124 28.7203Z" fill="#F4EADC"/>
<path d="M16.5385 15.0338L30.7043 22.0145L30.1848 21.0494L16.9172 14.5077L16.5385 15.0338Z" fill="#F4EADC"/>
<path d="M17.7751 13.3112L29.0052 18.8441L28.4858 17.8756L18.1538 12.785L17.7751 13.3112Z" fill="#F4EADC"/>
<path d="M19.0151 11.5886L27.3061 15.6738L26.7867 14.7053L19.3938 11.0625L19.0151 11.5886Z" fill="#F4EADC"/>
<path d="M20.255 9.86611L25.6037 12.5036L25.0842 11.535L20.6337 9.33997L20.255 9.86611Z" fill="#F4EADC"/>
<path d="M21.8704 7.61743L21.4917 8.14358L23.8711 9.31652L22.7115 8.03299L21.8704 7.61743Z" fill="#F4EADC"/>
<path d="M15.2985 16.7564L30.2988 24.1493L31.0528 23.8074L15.6772 16.2302L15.2985 16.7564Z" fill="#F4EADC"/>
<path d="M14.0619 18.4789L25.5467 24.1392L27.1553 24.2196L14.4406 17.9528L14.0619 18.4789Z" fill="#F4EADC"/>
<path d="M12.0579 19.8261L20.7711 24.119L21.3643 23.928L21.8838 23.9548L12.7851 19.4708L12.0579 19.8261Z" fill="#F4EADC"/>
<path d="M9.6751 20.9856L17.9092 25.0406L18.7838 24.7591L10.4023 20.6304L9.6751 20.9856Z" fill="#F4EADC"/>
<path d="M7.29235 22.1418L15.0438 25.9622L15.9185 25.6807L8.02293 21.7899L7.29235 22.1418Z" fill="#F4EADC"/>
<path d="M8.31448 24.9804L12.7147 27.1487L13.3213 26.7331L7.76488 23.9951L8.31448 24.9804Z" fill="#F4EADC"/>
<path d="M10.1242 28.2043L10.7308 28.5025L11.3373 28.0903L9.57121 27.219L10.1242 28.2043Z" fill="#F4EADC"/>
<path d="M16.3006 26.2237L23.0567 24.5447L32.5073 24.7994C32.7586 24.8061 32.9195 24.5279 32.7854 24.3135L28.965 18.1907L28.7807 17.7986L29.5347 15.8917C29.5515 15.8482 29.5582 15.7979 29.5481 15.751L29.2029 13.9715C29.1929 13.9178 29.1661 13.8709 29.1259 13.8341L27.849 12.6611C27.8122 12.6276 27.7652 12.6041 27.715 12.5974L26.2002 12.3696L22.7417 5.0839C22.6345 4.85601 22.3194 4.83926 22.1854 5.05374L17.0613 13.2979L12.6041 18.1002L5.2816 22.0111C5.17771 22.0648 5.14084 22.1921 5.19111 22.296L6.30038 24.4542L10.0504 29.4744C10.1141 29.5582 10.2281 29.585 10.3219 29.5347L13.9949 27.5675C14.0217 27.5508 14.0586 27.5608 14.0787 27.5843L16.4145 30.5468L19.5781 33.0469C19.6518 33.1038 19.7524 33.1139 19.8361 33.0703L22.9495 31.4416C23.107 31.3578 23.1237 31.1366 22.9763 31.0327L19.0989 28.7505L16.2737 26.341C16.2335 26.3075 16.2469 26.2404 16.3006 26.227V26.2237ZM10.5565 27.4435L8.27428 24.5782L7.2823 22.7685C7.2622 22.7283 7.2823 22.678 7.32252 22.6579L10.399 21.3007L12.8018 19.7055C12.8421 19.682 12.8957 19.6954 12.9191 19.739L14.4842 22.6378L15.4125 24.595C15.4326 24.6352 15.4192 24.6855 15.379 24.7056L10.6604 27.4636C10.6269 27.4804 10.5833 27.4737 10.5565 27.4435ZM18.4588 14.4004L22.2591 8.2676C22.2926 8.21063 22.3764 8.21733 22.4032 8.27766L26.79 18.4119L29.9771 22.9294C30.0139 22.9864 29.9704 23.0601 29.9033 23.0567L22.5909 22.7786L16.944 24.1828C16.9071 24.1928 16.8669 24.1761 16.8468 24.1425L16.0894 21.7833L14.2161 19.0051C14.1993 18.9715 18.4554 14.3971 18.4554 14.3971L18.4588 14.4004Z" fill="#242A2B"/>
<path d="M17.3931 17.3394C19.8936 17.3394 21.9206 15.3124 21.9206 12.8119C21.9206 10.3114 19.8936 8.2843 17.3931 8.2843C14.8926 8.2843 12.8655 10.3114 12.8655 12.8119C12.8655 15.3124 14.8926 17.3394 17.3931 17.3394Z" fill="#FFFCF8"/>
<path d="M17.3931 16.5117C19.4364 16.5117 21.0929 14.8552 21.0929 12.8119C21.0929 10.7685 19.4364 9.11206 17.3931 9.11206C15.3497 9.11206 13.6933 10.7685 13.6933 12.8119C13.6933 14.8552 15.3497 16.5117 17.3931 16.5117Z" fill="#D2C65E"/>
</g>
<defs>
<clipPath id="clip0_1838_7076">
<rect width="38" height="38" rx="19" fill="white"/>
</clipPath>
</defs>
</svg>
