<svg width="74" height="73" viewBox="0 0 74 73" fill="none" xmlns="http://www.w3.org/2000/svg">
<circle cx="37" cy="36.5" r="36.5" fill="#BFDABA"/>
<g clip-path="url(#clip0_1869_6994)">
<path d="M41.5511 30.2266L51.4418 31.6641C51.6005 31.6862 51.6755 31.8758 51.5741 32.0037L48.8093 35.4696L44.4174 38.9399C44.3512 38.9928 44.3204 39.081 44.3468 39.1604L45.7623 44.1432L46.3488 49.5581C46.3664 49.7301 46.1812 49.8492 46.0313 49.761L40.5634 46.4494L36.8991 44.5224C36.8417 44.4916 36.7756 44.4916 36.7183 44.5136L30.783 47.0844L27.4847 49.1569C27.3347 49.2539 27.1407 49.126 27.1628 48.9496L27.6787 45.1883L29.2749 39.156C29.297 39.0722 29.2661 38.9884 29.2 38.9355L24.7904 35.571L22.0521 32.0213C21.9507 31.889 22.0344 31.695 22.202 31.6818L26.8409 31.3114L32.075 30.2266C32.1367 30.2134 32.1941 30.1737 32.2205 30.112L36.6213 21.1958C36.6962 21.0415 36.9211 21.0415 36.9961 21.1958L41.3924 30.1076C41.4233 30.1693 41.4806 30.2134 41.5511 30.2222V30.2266ZM32.463 19.9612L29.76 26.7122C29.7335 26.7828 29.6674 26.8313 29.5968 26.8401L14.2383 29.0713C14.0708 29.0978 14.0002 29.2962 14.1149 29.4241L20.1604 35.9458L25.2226 40.2363C25.2843 40.2892 25.3107 40.373 25.2887 40.4524L23.472 47.0888L22.0653 55.6742C22.0388 55.8418 22.2152 55.974 22.3652 55.8947L36.6962 48.7203C36.7624 48.685 36.8417 48.6895 36.9079 48.7335L41.7143 51.9261L50.6613 55.9696C50.8112 56.0358 50.9744 55.9167 50.9567 55.7536L50.0748 48.3499L48.3198 40.4524C48.3022 40.373 48.333 40.2892 48.3948 40.2407L53.8582 35.9987L58.9028 29.3447C58.9998 29.2168 58.9248 29.0316 58.7661 29.0096L44.0293 26.8445C43.9544 26.8313 43.8882 26.7828 43.8618 26.7078L41.9789 21.5927L36.9873 12.7648C36.9079 12.6237 36.705 12.6237 36.6213 12.7648L32.4586 19.9612H32.463Z" fill="#242A2B"/>
</g>
<defs>
<clipPath id="clip0_1869_6994">
<rect width="50" height="50" fill="white" transform="translate(11.5 10)"/>
</clipPath>
</defs>
</svg>
