<svg width="170" height="155" viewBox="0 0 170 155" fill="none" xmlns="http://www.w3.org/2000/svg">
<path d="M167.794 12.5373L162.873 7.06983C162.6 6.79645 162.053 6.52308 161.78 6.52308C152.485 3.51597 142.644 2.1491 132.802 2.1491C125.148 1.87573 117.767 3.2426 110.659 6.24971C103.551 3.51597 96.1703 2.1491 88.5158 2.1491C78.6744 1.87573 68.8329 3.51597 59.2649 6.24971C58.7181 6.52308 58.1714 6.79645 57.898 7.06983L52.7039 12.5373C52.1572 13.084 51.8838 13.6308 51.8838 14.4509V75.6866C51.8838 76.5067 52.4305 77.3268 52.9773 77.8736C53.7974 78.4203 54.6175 78.4203 55.4376 78.147C65.2791 75.1398 75.3939 73.773 85.5087 73.773C91.523 73.773 97.2638 74.3197 103.005 75.96C103.825 77.8736 105.738 79.2405 107.925 79.2405H112.026C114.213 79.2405 116.127 77.8736 116.947 75.96C122.688 74.3197 128.702 73.4996 134.443 73.773C144.557 73.4996 154.672 75.1398 164.514 78.147C165.334 78.4203 166.154 78.147 166.974 77.8736C167.794 77.3268 168.068 76.5067 168.068 75.6866V14.4509C168.341 13.9042 168.341 13.084 167.794 12.5373ZM107.652 71.8594C107.379 71.586 107.105 71.586 106.832 71.3126C99.9975 69.1256 92.8898 68.0321 85.7821 68.3055C76.214 68.3055 66.646 69.399 57.3513 71.8594V15.5444L61.1785 11.4438C69.9264 8.98344 78.9478 7.61657 87.9691 7.61657C94.5301 7.3432 101.091 8.43669 107.379 10.8971L107.652 71.8594ZM163.147 71.8594C153.852 69.399 144.284 68.3055 134.716 68.3055C127.608 68.0321 120.501 69.1256 113.666 71.3126C113.393 71.3126 113.119 71.586 112.846 71.8594V10.8971C119.134 8.43669 125.695 7.3432 132.256 7.61657C141.277 7.61657 150.298 8.71007 159.046 11.4438L162.873 15.5444L163.147 71.8594Z" fill="black"/>
<path d="M112.026 80.6074H107.925C105.465 80.6074 103.278 79.2405 102.184 77.0535C96.9901 75.6866 91.796 75.1399 85.5084 75.1399C75.1202 75.1399 65.2788 76.5068 55.7107 79.5139C54.3438 80.0606 53.2503 79.7873 52.1568 78.9671C51.6101 78.4204 50.5166 77.0535 50.5166 75.6866V14.451C50.5166 13.3575 50.79 12.5373 51.6101 11.4438L56.8042 5.97638C57.3509 5.42963 57.8977 5.15626 58.4444 4.88288C69.3794 1.6024 79.2208 0.508903 88.2422 0.508903C95.8966 0.508903 103.278 1.87577 110.385 4.60951C117.493 1.6024 124.874 0.23553 132.529 0.508903C142.917 0.508903 152.758 1.87577 161.78 4.88288C162.326 4.88288 163.147 5.42963 163.42 5.703L168.341 11.1705C169.161 11.9906 169.434 13.0841 168.887 14.1776V75.1399C168.887 76.5068 168.341 77.6003 167.247 78.4204L167.521 79.2405C166.7 79.5139 165.334 80.0606 164.24 79.5139C154.125 76.5068 144.01 74.8665 134.716 75.1399C129.522 74.8665 123.781 75.6866 118.04 77.0535C116.673 79.2405 114.486 80.6074 112.026 80.6074ZM85.5084 72.4062C92.3428 72.4062 98.0836 73.2263 103.278 74.5931L103.824 74.8665L104.098 75.4133C104.645 76.7801 106.285 77.8736 107.652 77.8736H111.752C113.393 77.8736 114.759 76.7801 115.306 75.4133L115.58 74.8665L116.126 74.5931C122.14 72.9529 128.428 72.1328 134.169 72.4062C143.737 72.1328 154.125 73.4996 164.513 76.7801C164.787 76.7801 165.334 76.7801 165.88 76.5068C166.154 76.2334 166.154 75.96 166.154 75.4133V14.1776L166.427 13.9042V13.6308L161.506 8.16336H161.233C152.485 4.88288 142.917 3.51601 132.802 3.51601C125.421 3.24264 118.04 4.60951 111.206 7.61662L110.659 7.88999L110.112 7.61662C103.278 4.88288 95.8966 3.51601 88.5155 3.51601C79.4942 3.24264 69.9261 4.60951 59.5379 7.61662C59.5379 7.61662 58.9912 7.88999 58.7178 8.16336L53.5237 13.6308C53.2503 13.9042 52.977 14.1776 52.977 14.7243V75.96C52.977 76.2334 53.2503 76.7801 53.7971 77.0535C53.7971 77.0535 54.3438 77.3269 54.8906 77.0535C64.732 73.773 74.8468 72.4062 85.5084 72.4062ZM109.019 75.1399L106.558 72.6795C106.285 72.6795 106.285 72.4062 106.011 72.4062C99.1771 70.2192 92.3428 69.399 85.7818 69.6724C75.9403 69.6724 66.3723 70.7659 57.6243 73.2263L55.9841 73.773V14.9977L60.358 10.3504H60.6314C69.6528 7.88999 78.9475 6.52312 87.6954 6.52312C94.5297 6.24975 101.091 7.34325 107.652 9.80361L108.472 10.077L109.019 75.1399ZM58.7178 16.0912V70.2192C67.1924 68.0322 76.2137 66.9387 85.7818 66.9387C92.3428 66.6653 99.4505 67.4854 106.285 69.6724L106.011 11.7172C100.271 9.53023 94.2564 8.71011 87.9688 8.98349C79.4942 8.98349 70.7462 10.3504 61.7249 12.5373L58.7178 16.0912ZM111.479 75.1399V10.077L112.299 9.53023C118.86 7.06987 125.421 5.97638 132.255 6.24975C142.097 6.24975 151.118 7.61662 159.319 10.077H159.593L163.967 14.7243L164.24 73.2263L162.6 72.6795C154.125 70.7659 144.557 69.6724 134.716 69.6724C127.881 69.399 121.047 70.4925 114.213 72.6795C114.213 72.6795 114.213 72.6795 113.939 72.9529L111.479 75.1399ZM134.716 66.9387C144.01 66.9387 153.305 68.0322 161.78 70.2192L161.506 16.0912L158.226 12.5373C150.298 10.077 141.55 8.98349 132.255 8.98349C125.968 8.71011 119.953 9.80361 114.213 11.7172V69.6724C121.047 67.4854 127.881 66.6653 134.716 66.9387Z" fill="black"/>
<path d="M154.397 22.1056C147.836 20.4654 141.002 19.9186 134.167 19.9186H133.347C128.973 19.9186 124.599 20.4654 120.225 21.5589C118.859 21.8323 117.765 23.4725 118.312 24.8394C118.585 26.2062 120.225 27.2997 121.592 26.753C125.419 25.6595 129.52 25.1127 133.347 25.1127H134.167C140.728 25.1127 147.016 25.9329 153.304 27.2997H153.85C155.491 27.5731 156.584 26.4796 156.857 24.8394C157.131 23.1991 156.037 22.379 154.397 22.1056Z" fill="black"/>
<path d="M154.396 28.6665C154.123 28.6665 153.85 28.6665 153.576 28.6665H153.029H152.756C146.195 27.2996 139.908 26.4795 133.893 26.4795H133.073C129.246 26.4795 125.419 27.0262 121.592 28.1197C120.771 28.3931 119.678 28.3931 118.584 27.8463C117.491 27.2996 116.671 26.2061 116.671 25.1126C116.397 24.2925 116.397 23.199 116.944 22.3789C117.491 21.2854 118.584 20.4653 119.678 20.4653C124.052 19.3718 128.699 18.825 133.073 18.825H133.893C141.821 18.825 148.382 19.6451 154.396 21.012C155.49 21.2854 156.31 21.5588 157.13 22.1055C157.677 22.6522 158.224 23.7457 157.95 25.1126C157.677 26.2061 157.13 27.2996 156.583 27.8463C156.037 28.3931 155.216 28.6665 154.396 28.6665ZM153.576 25.9327H153.85C154.396 25.9327 154.67 25.9327 154.943 25.6594C155.216 25.386 155.49 25.1126 155.49 24.5659C155.49 24.0191 155.49 24.0191 155.49 23.7457C155.49 23.7457 154.943 23.4724 154.396 23.199C148.655 21.8321 142.095 21.012 134.44 21.012H133.62C129.246 21.012 125.145 21.5587 120.771 22.6522C120.498 22.6522 119.951 22.9256 119.951 23.199C119.951 23.199 119.678 23.7457 119.951 24.0191C119.951 24.5659 120.225 24.8392 120.771 25.1126C120.771 25.1126 121.318 25.386 121.592 25.1126C125.692 24.0191 129.793 23.4724 133.893 23.4724H134.713C140.454 23.7457 146.742 24.5659 153.576 25.9327Z" fill="black"/>
<path d="M154.397 37.9611C147.836 36.3209 141.002 35.7741 134.167 35.7741H133.347C128.973 35.7741 124.599 36.3209 120.225 37.4144C118.859 37.6877 117.765 39.328 118.312 40.6948C118.585 42.0617 120.225 43.1552 121.592 42.6084C125.419 41.515 129.52 40.9682 133.347 41.2416H134.167C140.728 41.2416 147.016 42.0617 153.304 43.4286H153.85C155.491 43.7019 156.584 42.6084 156.857 40.9682C157.131 39.328 156.037 37.9611 154.397 37.9611Z" fill="black"/>
<path d="M154.396 44.7953C154.123 44.7953 153.85 44.7953 153.576 44.7953H153.029H152.756C146.195 43.4284 139.908 42.6083 133.893 42.6083H133.073C129.519 42.3349 125.692 42.8817 121.592 43.9752C120.771 44.2486 119.678 44.2486 118.584 43.7018C117.491 43.1551 116.671 42.0616 116.671 40.9681C116.397 40.148 116.397 39.0545 116.944 38.2343C117.491 37.1408 118.584 36.3207 119.678 36.3207C124.052 35.2272 128.699 34.6805 133.073 34.6805H133.893C141.548 34.6805 148.382 35.5006 154.396 36.8675C155.49 36.8675 156.583 37.4142 157.13 38.2343C157.95 39.0545 158.224 40.4213 157.95 41.5148C157.677 42.6083 157.13 43.7018 156.583 44.2486C156.037 44.5219 155.216 44.7953 154.396 44.7953ZM153.576 42.0616H153.85C154.396 42.0616 154.67 42.0616 154.943 41.7882C155.216 41.5148 155.49 41.2414 155.49 40.6947C155.49 40.1479 155.49 39.8746 155.216 39.6012C154.943 39.3278 154.67 39.3278 154.396 39.3278H154.123C148.382 37.961 141.821 37.1408 134.167 37.1408H133.347C128.973 37.1408 124.872 37.6876 120.498 38.7811C120.225 38.7811 119.678 39.0545 119.678 39.3278C119.678 39.3278 119.405 39.8746 119.678 40.148C119.678 40.6947 119.951 40.9681 120.498 41.2414C120.498 41.2414 121.045 41.5148 121.318 41.2414C125.692 39.8746 129.793 39.6012 133.62 39.8746H134.44C140.454 39.8746 146.742 40.6947 153.576 42.0616Z" fill="black"/>
<path d="M154.397 53.5435C147.836 51.9033 141.002 51.3565 134.167 51.3565H133.347C128.973 51.3565 124.599 51.9033 120.225 52.9967C118.859 53.2701 117.765 54.9104 118.312 56.2772C118.585 57.6441 120.225 58.7376 121.592 58.1908C125.419 57.0974 129.52 56.5506 133.347 56.824H134.167C140.728 56.824 147.016 57.6441 153.304 59.011H153.85C155.491 59.2843 156.584 58.1909 156.857 56.5506C157.131 54.9104 156.037 53.5435 154.397 53.5435Z" fill="black"/>
<path d="M154.396 60.3778C154.123 60.3778 153.85 60.3778 153.576 60.3778H153.029H152.756C146.195 59.0109 139.908 58.1908 133.893 58.1908H133.073C129.519 57.9174 125.692 58.4641 121.592 59.5576C120.771 59.831 119.678 59.831 118.584 59.2843C117.491 58.7375 116.671 57.644 116.671 56.5505C116.397 55.7304 116.397 54.6369 116.944 53.8168C117.491 52.7233 118.584 51.9032 119.678 51.9032C124.052 50.8097 128.699 50.2629 133.073 50.2629H133.893C141.548 50.2629 148.382 51.0831 154.396 52.4499C155.49 52.4499 156.583 52.9967 157.13 53.8168C157.95 54.6369 158.224 56.0038 157.95 57.0973C157.677 58.1908 157.13 59.2843 156.583 59.831C156.037 60.1044 155.216 60.3778 154.396 60.3778ZM153.576 57.644H153.85C154.67 57.644 154.943 57.644 154.943 57.3707C155.216 57.0973 155.49 56.8239 155.49 56.2772C155.49 55.7304 155.49 55.457 155.216 55.1837C154.943 54.9103 154.67 54.9103 154.396 54.9103H154.123C148.382 53.5434 141.821 52.7233 134.167 52.7233H133.347C128.973 52.7233 124.872 53.27 120.498 54.3635C120.225 54.3635 119.678 54.6369 119.678 54.9103C119.678 54.9103 119.405 55.457 119.678 55.7304C119.678 56.2772 119.951 56.5505 120.498 56.8239C120.498 56.8239 121.045 57.0973 121.318 56.8239C125.692 55.457 129.793 55.1837 133.62 55.457H134.44C140.454 55.457 146.742 56.2772 153.576 57.644Z" fill="black"/>
<path d="M86.601 19.9182C79.7667 19.9182 73.2057 20.7383 66.3714 22.1052C64.7311 22.3786 63.6376 23.7454 63.911 25.1123C64.1844 26.4792 65.5512 27.846 66.9181 27.5727H67.4649C73.7525 26.2058 80.04 25.3857 86.3276 25.3857H87.1478C91.2484 25.3857 95.0756 25.9324 98.9028 27.0259C100.27 27.2993 101.91 26.4792 102.183 25.1123C102.457 23.7454 101.637 22.1052 100.27 21.8318C95.8957 20.7383 91.5217 20.1916 87.1478 20.1916L86.601 19.9182Z" fill="black"/>
<path d="M66.3709 28.9396C65.5508 28.9396 64.7307 28.6662 63.9106 27.8461C63.0905 27.2993 62.5437 26.2058 62.2703 25.1124C61.997 24.0189 62.2703 23.1987 62.8171 22.3786C63.3638 21.2851 64.4573 20.7384 65.8242 20.465C73.2053 19.0981 79.7662 18.278 86.3272 18.278H86.6006L87.1473 18.5514C91.5213 18.5514 95.8953 19.0981 100.269 20.1916C101.363 20.465 102.183 21.0118 102.73 22.1052C103.276 22.9254 103.276 24.0189 103.276 25.1124C103.003 26.2058 102.456 27.026 101.363 27.5727C100.543 28.1195 99.4491 28.3928 98.3556 28.1195C94.5284 27.026 90.7012 26.4792 86.874 26.4792H86.0538C80.313 26.4792 74.0254 27.2993 67.4644 28.6662H66.6443C66.6443 28.9396 66.6443 28.9396 66.3709 28.9396ZM86.3272 21.2851C80.313 21.2851 74.0254 22.1052 66.6443 23.4721C66.0976 23.4721 65.5508 23.7455 65.5508 24.2922C65.5508 24.5656 65.2774 24.839 65.2774 25.1124C65.5508 25.9325 66.0976 26.4792 66.6443 26.4792H67.1911C74.0254 25.1124 80.313 24.2922 86.3272 24.2922H87.1473C91.2479 24.2922 95.3485 24.839 99.1758 25.9325C99.4491 25.9325 99.7225 25.9325 100.269 25.6591C100.543 25.6591 100.816 25.3857 100.816 25.1124C100.816 24.839 100.816 24.2922 100.543 24.0189C100.543 23.7455 100.269 23.4721 99.9959 23.4721C95.6219 22.3786 91.2479 21.8319 87.1473 21.8319H86.874L86.3272 21.2851Z" fill="black"/>
<path d="M67.1895 43.1551H67.7363C74.0239 41.7883 80.3115 40.9681 86.5991 40.9681H87.4192C91.2464 40.9681 95.347 41.5149 99.1742 42.335C100.541 42.6084 102.181 41.7883 102.455 40.4214C102.728 39.0545 101.908 37.4143 100.541 37.1409C96.1671 36.0474 91.7932 35.5007 87.4192 35.5007H86.5991C79.7647 35.5007 73.2038 36.3208 66.3694 37.6877C64.7292 37.961 63.6357 39.3279 63.9091 40.6948C64.1824 42.0616 65.5493 43.4285 67.1895 43.1551Z" fill="black"/>
<path d="M66.6444 44.522C64.4574 44.522 62.8171 42.8817 62.5438 40.9681C62.2704 39.8746 62.5438 39.0545 63.0905 38.2344C63.6373 37.1409 64.7308 36.5941 66.0976 36.3208C73.4787 34.9539 80.0397 34.1338 86.6006 34.1338H87.4208C91.7947 34.1338 96.4421 34.6805 100.816 35.774C102.73 36.0474 104.097 38.5078 103.823 40.6948C103.55 42.6084 101.089 44.2486 98.9025 43.7019C94.8019 42.8817 90.7013 42.335 87.4208 42.335H86.6006C80.8598 42.335 74.5722 43.1551 68.0112 44.522H67.1911C67.1911 44.522 66.9177 44.522 66.6444 44.522ZM86.6006 36.8675C80.3131 36.8675 74.0255 37.6876 66.6444 39.0545C66.0976 39.0545 65.5509 39.3279 65.5509 39.8746C65.5509 40.148 65.2775 40.148 65.2775 40.6948C65.2775 41.2415 66.0976 42.335 66.9177 42.0616H67.4645C74.2988 40.6948 80.5864 39.8746 86.6006 39.8746H87.4208C90.9746 39.8746 95.0752 40.4214 99.4492 41.2415C100.269 41.5149 101.089 40.9681 101.089 40.4214C101.363 39.6013 100.816 38.7811 100.269 38.7811C95.8954 37.6876 91.7947 37.1409 87.4208 37.1409H86.6006V36.8675Z" fill="black"/>
<path d="M100.541 52.9968C96.1671 51.9033 91.7932 51.3566 87.4192 51.3566H86.5991C79.7647 51.3566 73.2038 52.1767 66.3694 53.5436C64.7292 53.8169 63.6357 55.1838 63.9091 56.5507C64.1824 57.9175 65.5493 59.2844 66.9162 59.011H67.4629C73.7505 57.6442 80.0381 56.824 86.3257 56.824H87.1458C91.2464 56.824 95.0736 57.3708 98.9009 58.1909C100.268 58.4643 101.908 57.6442 102.181 56.2773C103.001 54.9104 101.908 53.2702 100.541 52.9968Z" fill="black"/>
<path d="M66.371 60.3779C64.7308 60.3779 62.8171 58.7376 62.5438 56.824C62.2704 55.7305 62.5438 54.9104 63.0905 54.0903C63.6373 52.9968 64.7308 52.4501 66.0976 52.1767C73.4787 50.8098 80.0397 49.9897 86.6006 49.9897H87.4208C91.7947 49.9897 96.4421 50.5364 100.816 51.6299C101.91 51.9033 103.003 52.7234 103.55 53.8169C104.097 54.9104 103.823 55.7305 103.55 56.824C103.276 57.6441 102.73 58.4643 101.636 59.011C100.816 59.5578 99.7226 59.8311 98.6291 59.5578C94.2551 58.7376 90.7012 58.1909 87.1474 58.1909H86.3273C80.5864 58.1909 74.2988 59.011 67.7379 60.3779H66.9177C66.6444 60.3779 66.6444 60.3779 66.371 60.3779ZM86.6006 52.7234C80.3131 52.7234 74.0255 53.5435 66.6444 54.9104C66.0976 54.9104 65.5509 55.1838 65.5509 55.7305C65.5509 56.0039 65.2775 56.2773 65.2775 56.5507C65.5509 57.3708 66.0976 57.9175 66.6444 57.9175H67.1911C74.0255 56.5507 80.313 55.7305 86.3273 55.7305H87.1474C90.9746 55.7305 94.8019 56.2773 99.1758 57.0974C99.4492 57.0974 99.996 57.0974 100.269 56.824C100.543 56.824 100.816 56.5507 100.816 56.2773L101.089 55.7305C101.089 55.7305 101.363 55.4572 101.089 55.1838C100.816 54.9104 100.543 54.637 100.269 54.637C95.8954 53.5435 91.7947 52.9968 87.4208 52.9968H86.6006V52.7234Z" fill="black"/>
<path d="M93.4352 154.965H84.1405L76.7594 152.778C75.9393 152.505 75.1192 152.231 74.5725 151.958L68.5582 148.677L61.4505 145.67C61.1772 145.67 60.6304 145.397 60.357 145.397L54.3428 144.303L48.8753 144.85L44.228 146.217L26.1853 154.418C22.9048 155.785 19.6244 154.692 17.9841 151.684L1.5817 125.714C-0.0585386 122.433 1.03496 118.606 4.31544 116.693L34.3865 100.017H34.9333L42.041 96.7363L43.1345 96.4629L53.2493 94.276C53.7961 94.276 54.8896 94.276 55.9831 94.0026C60.0837 93.4558 61.7239 93.4558 63.0908 94.0026C64.4576 94.276 68.5582 95.0961 70.1985 95.6428C71.292 95.6428 72.1121 96.1896 72.9322 96.7363L78.9464 99.7434L87.421 103.571C87.9678 103.571 88.2411 103.844 88.5145 104.117L97.8092 106.031L109.291 105.484L114.212 104.117L141.276 84.7079C142.369 84.1611 143.189 83.6144 144.556 83.6144H146.743C148.11 83.6144 149.477 84.1611 150.57 84.9812L151.664 85.8014C152.211 86.3481 153.577 87.715 153.851 89.6286L157.678 88.8085H160.412L163.146 90.1754C165.059 90.9955 166.426 92.3623 166.973 94.5493V95.0961L167.519 98.6499V101.384L165.332 105.211C164.786 106.304 164.239 106.851 163.692 107.125L163.146 107.398L111.205 146.49V146.764L102.73 151.684C102.73 151.684 102.73 151.684 102.457 151.684L101.91 151.958C101.636 151.958 101.636 151.958 101.363 152.231L93.4352 154.965ZM85.5074 146.764H92.0684L98.6293 144.577C98.9027 144.577 98.9027 144.303 99.1761 144.303L104.097 141.296C104.37 141.023 104.644 140.749 105.19 140.476L158.225 100.564L159.318 98.1032V97.0097L158.225 96.4629L153.851 97.2831H152.484C149.477 97.2831 146.743 95.0961 146.196 92.089L145.65 91.2688H144.829L116.945 111.225H116.399C116.125 111.225 115.852 111.225 115.852 111.498L110.111 113.139H109.018L96.169 113.685L84.4139 111.225L84.1405 110.678L75.3926 106.578L68.2849 103.297C64.1843 102.477 61.7239 101.93 60.357 101.384C59.5369 101.384 57.8967 101.657 56.8032 101.657C55.4363 101.657 54.3428 101.93 53.7961 101.93L46.1416 103.844C45.8682 104.117 45.3215 104.117 45.0481 104.391L36.8469 107.945L9.78291 122.707L24.5451 145.944L42.8611 137.742H43.4079L48.0552 136.102H49.1487L55.7097 135.555L64.731 137.196L65.0044 137.469L71.5653 140.203H71.8387L79.4932 144.303L85.5074 146.764ZM58.7168 100.837C59.2635 101.384 59.8103 101.384 60.0837 101.657C59.2635 101.11 58.7168 100.837 58.7168 100.837Z" fill="black"/>
<path d="M117.218 128.721H76.2119V120.52H116.124L118.858 119.7L120.225 117.786V115.326L118.311 113.685C118.038 113.685 118.038 113.412 117.765 113.412L112.571 110.678L116.124 103.297L122.412 106.578C122.685 106.851 123.232 107.124 123.506 107.398L125.693 109.311C127.333 110.952 128.153 112.865 128.153 114.779V117.786C128.153 119.7 127.606 120.793 127.059 121.613L126.786 122.16L125.146 124.347C124.326 125.714 122.685 126.807 121.045 127.354H120.772L117.218 128.721Z" fill="black"/>
<path d="M149.877 90.6303L123.558 109.282L128.3 115.973L154.619 97.3217L149.877 90.6303Z" fill="black"/>
</svg>
