<svg width="74" height="73" viewBox="0 0 74 73" fill="none" xmlns="http://www.w3.org/2000/svg">
<circle cx="37" cy="36.5" r="36.5" fill="#EEB67E"/>
<g clip-path="url(#clip0_1869_7010)">
<path d="M37.3743 54.4121L24.7145 42.9825L20.3446 37.3692C16.1555 33.1801 16.1555 26.3629 20.3446 22.1694C24.5337 17.9803 31.3509 17.9803 35.5444 22.1694L37.6609 24.3036C37.7403 24.383 37.8638 24.383 37.9432 24.3036L39.9451 22.3017C43.8476 18.3992 50.1841 18.0861 54.2718 21.7946C58.8489 25.944 58.9768 33.0478 54.6598 37.3647L49.0597 44.6229L42.7804 49.6542L37.6477 54.4077C37.5728 54.4782 37.4537 54.4782 37.3787 54.4077L37.3743 54.4121ZM26.1873 23.1483C25.6361 23.285 25.1025 23.5011 24.6087 23.7833C20.5034 26.1512 20.0007 31.5133 23.1006 34.6132L27.2676 40.4294L32.8633 44.5303L37.3743 48.8913C37.4493 48.9619 37.5683 48.9663 37.6433 48.8957L45.9509 42.0477L51.4585 34.7058C54.6642 31.5 54.7436 25.8205 49.8666 23.5408C49.3507 23.2982 48.8039 23.1219 48.2439 23.0293C45.9818 22.65 43.7858 23.3644 42.216 24.9342L39.9363 27.7916L37.6345 29.5466C37.5551 29.6083 37.4449 29.5995 37.3743 29.529L32.7796 24.9342C31.0775 23.2321 28.639 22.5398 26.1873 23.1483Z" fill="#242A2B"/>
</g>
<defs>
<clipPath id="clip0_1869_7010">
<rect width="50" height="50" fill="white" transform="translate(12.5 11)"/>
</clipPath>
</defs>
</svg>
