<svg width="38" height="38" viewBox="0 0 38 38" fill="none" xmlns="http://www.w3.org/2000/svg">
<path d="M25.2509 10.1299L19.5672 11.4194L16.3499 15.3203L16.8647 20.4544L21.4278 24.425L15.1301 24.0577L10.9772 16.8941L14.173 9.77597L20.8809 7.26654L24.9774 8.44082L25.2509 10.1299Z" fill="#E5DAC8"/>
<path d="M20.4304 7.16736C15.3794 7.16736 11.2694 11.2773 11.2694 16.3284C11.2694 21.3794 15.3794 25.4894 20.4304 25.4894C25.4814 25.4894 29.5914 21.3794 29.5914 16.3284C29.5914 11.2773 25.4814 7.16736 20.4304 7.16736ZM20.4304 8.23976C23.3232 8.23976 25.8648 9.76794 27.2938 12.0575L19.6315 8.27998C19.8942 8.25317 20.1596 8.23976 20.4304 8.23976ZM18.4599 8.48374L27.8514 13.1138C28.1329 13.7626 28.334 14.457 28.4359 15.1809L16.4679 9.28C17.0872 8.93146 17.7547 8.66068 18.4599 8.48374ZM14.6448 21.9719L19.492 24.3607C17.6019 24.1408 15.9075 23.2668 14.6448 21.9719ZM21.1275 24.3848L13.6206 20.685C13.1756 19.9906 12.8324 19.2266 12.6152 18.4088L23.5404 23.7923C22.787 24.106 21.9747 24.3098 21.1275 24.3821V24.3848ZM24.3393 23.4062L12.4329 17.5375C12.374 17.1434 12.3418 16.7386 12.3418 16.3284C12.3418 16.1246 12.3525 15.9262 12.3659 15.7278L25.8165 22.358C25.3661 22.7601 24.8702 23.114 24.3393 23.4089V23.4062ZM26.3474 21.8352L12.4544 14.9879C12.5455 14.4463 12.6903 13.9208 12.8833 13.4195L27.3313 20.5402C27.0471 21.0041 26.7147 21.4384 26.3474 21.8352ZM27.6718 19.9263L13.1649 12.776C13.4008 12.2935 13.685 11.8377 14.0121 11.4141L28.2429 18.4276C28.1035 18.9504 27.9104 19.4518 27.6745 19.9263H27.6718ZM14.4759 10.8618C14.8673 10.4382 15.3016 10.0548 15.7735 9.72236L28.511 16.0013C28.5163 16.1112 28.519 16.2211 28.519 16.3311C28.519 16.8056 28.4761 17.2721 28.3957 17.7252L14.4759 10.8618Z" fill="#F4EADC"/>
<path d="M30.0068 14.2961C29.5108 11.835 28.1784 9.80275 26.3875 8.40058C23.9692 6.50778 20.7144 5.76246 17.5482 6.65792C12.5186 8.08154 9.39519 13.339 10.5588 18.4329C10.9234 20.0335 11.6553 21.4357 12.6285 22.5992C12.717 22.7038 12.7223 22.8539 12.6365 22.9638L11.0655 25.551L7.31205 29.8674C7.21285 29.9961 7.23698 30.1811 7.36567 30.2803L9.81879 32.2053C9.94748 32.3045 10.1325 32.2804 10.2317 32.1517L12.1084 29.232L15.4918 25.2025C15.5776 25.0926 15.7251 25.0604 15.8511 25.122C18.2157 26.2937 21.0442 26.5483 23.7574 25.5269C28.2588 23.8352 30.9532 19.0093 30.0041 14.2934L30.0068 14.2961ZM22.4437 23.5403C20.0737 24.2507 17.4919 23.7628 15.5374 22.2346C14.2907 21.2587 13.3926 19.9397 12.9368 18.4195C11.7277 14.3873 14.0253 10.1218 18.0575 8.91265C20.4276 8.20218 23.0094 8.69013 24.9638 10.2183C26.2105 11.1942 27.1086 12.5133 27.5644 14.0334C28.7736 18.0656 26.4759 22.3311 22.4437 23.5403Z" fill="#242A2B"/>
</svg>
