<svg width="46" height="46" viewBox="0 0 46 46" fill="none" xmlns="http://www.w3.org/2000/svg">
<rect width="46" height="46" rx="4" fill="#C6BFDB"/>
<g clip-path="url(#clip0_1842_6609)">
<path d="M38.8096 14.1376L38.4745 13.531C38.4309 13.4506 38.3304 13.4238 38.2499 13.4707L37.0502 14.1677C37.0066 14.1912 36.9563 14.1979 36.9094 14.1778L35.8973 13.7823C35.8203 13.7522 35.7767 13.6684 35.8001 13.588L35.9007 13.2361C35.9107 13.2026 35.9074 13.1624 35.894 13.1289L34.9154 10.736C34.9087 10.7159 34.8953 10.6992 34.8819 10.6858L31.8557 7.52218C31.8356 7.50208 31.8121 7.48532 31.782 7.47862L28.8999 6.64415C28.863 6.6341 28.8262 6.63745 28.7927 6.65085L25.5654 8.01147C25.5386 8.02152 25.5084 8.02822 25.4816 8.02152L19.2449 7.21387C19.2114 7.21052 19.1745 7.21387 19.1444 7.23397L10.2333 12.2207C10.1831 12.2475 10.1529 12.3011 10.1496 12.3581L9.91162 21.4467C9.91162 21.5104 9.94513 21.5707 10.0055 21.5975L17.6899 25.2872C17.7234 25.304 17.7569 25.3074 17.7938 25.3006L27.6432 23.2966C27.67 23.2899 27.7001 23.2932 27.727 23.2999L29.4998 23.8797C29.5668 23.9032 29.6137 23.9635 29.6137 24.0372L29.597 26.6512C29.597 26.7082 29.5668 26.7618 29.5199 26.7886L27.7202 27.8744C27.6867 27.8945 27.6499 27.9012 27.613 27.8979L19.255 26.6914C19.2281 26.6881 19.2013 26.6914 19.1745 26.7015L13.2763 28.8966C13.2093 28.9234 13.1657 28.9904 13.1691 29.0608L13.779 36.8089C13.7823 36.8692 13.8192 36.9195 13.8728 36.9429L19.1913 39.3525C19.2248 39.3693 19.2617 39.3726 19.2985 39.3626L23.491 38.327C23.5211 38.3203 23.5546 38.3203 23.5814 38.3304L25.4883 38.9805C25.5587 39.004 25.6358 38.9805 25.676 38.9168L27.1271 36.7385C27.1773 36.6614 27.1539 36.5575 27.0768 36.5073L23.8361 34.5535C23.806 34.5334 23.7691 34.5267 23.7322 34.53L19.6705 35.0361C19.6336 35.0394 19.5968 35.0361 19.5666 35.0126L18.3233 34.2653C18.273 34.2351 18.2429 34.1815 18.2429 34.1245V32.3651C18.2429 32.2947 18.2898 32.2311 18.3568 32.211L19.6605 31.7887C19.6839 31.782 19.7107 31.7786 19.7375 31.782L28.5044 33.2867C28.5413 33.2934 28.5782 33.2867 28.6117 33.2666L34.6641 29.8617C34.7143 29.8349 34.7445 29.7813 34.7479 29.721L34.9087 20.3006C34.9087 20.2335 34.8685 20.1699 34.8048 20.1464L28.2766 17.5659C28.2497 17.5559 28.2196 17.5525 28.1928 17.5559L18.7791 19.0237C18.7489 19.0271 18.7187 19.0237 18.6886 19.0137L16.1383 17.9111C16.078 17.8843 16.0377 17.824 16.0411 17.7569L16.088 15.9573C16.088 15.9003 16.1215 15.8467 16.1718 15.8199L20.5318 13.3835C20.5552 13.3701 20.5854 13.3634 20.6122 13.3634L24.6672 13.4204C24.7209 13.4204 24.7678 13.4472 24.7979 13.4908L25.8402 15.0022C25.8536 15.0223 25.8737 15.0424 25.8972 15.0525L28.4039 16.3762C28.4274 16.3896 28.4508 16.3963 28.4776 16.3963L32.851 16.4433C32.8745 16.4433 32.898 16.4399 32.9181 16.4298L35.1399 15.4647C35.1835 15.4446 35.217 15.4077 35.2304 15.3641L35.3879 14.8514C35.4148 14.7609 35.5119 14.714 35.5991 14.7442L36.5743 15.096C36.6279 15.1162 36.6648 15.1597 36.6782 15.2133L36.9496 16.4366C36.9697 16.5237 37.0569 16.5807 37.144 16.5605L37.7975 16.4198C37.8846 16.3997 37.9416 16.3126 37.9215 16.2254L37.6601 15.0558C37.6433 14.9855 37.6769 14.9117 37.7439 14.8749L38.7459 14.342C38.8263 14.2984 38.8565 14.1979 38.8129 14.1175L38.8096 14.1376ZM33.9268 14.3722L32.6131 14.9352C32.593 14.9452 32.5695 14.9486 32.5461 14.9486L28.8831 14.9017C28.8563 14.9017 28.8295 14.895 28.8094 14.8816L26.9159 13.8628C26.8891 13.8494 26.8657 13.8259 26.8489 13.7991L25.8771 12.0363C25.8502 11.9894 25.8 11.9559 25.7464 11.9526L20.1497 11.5605C20.1162 11.5605 20.0861 11.5672 20.0593 11.5806L14.4224 14.7911C14.3722 14.8212 14.342 14.8715 14.3386 14.9318L14.2917 18.7255C14.2917 18.7858 14.3252 18.8428 14.3789 18.8729L18.3334 20.9205C18.3635 20.9373 18.4004 20.944 18.4339 20.9373L27.8476 19.3522C27.8778 19.3488 27.9079 19.3522 27.9347 19.3622L33.0588 21.3629C33.1225 21.3864 33.1627 21.4467 33.1627 21.5137V28.7223C33.1627 28.7826 33.1292 28.8396 33.0756 28.8664L28.0788 31.4234C28.0487 31.4402 28.0118 31.4435 27.9783 31.4402L19.3387 30.0427C19.3086 30.0393 19.2784 30.0427 19.2482 30.0527L16.5605 31.2022C16.5002 31.229 16.46 31.286 16.4633 31.353L16.4801 34.9791C16.4801 35.0394 16.517 35.0964 16.5706 35.1232L19.3086 36.4671C19.3387 36.4805 19.3722 36.4872 19.4058 36.4805L23.2966 35.8471C23.3301 35.8404 23.367 35.8471 23.3971 35.8638L25.1599 36.7754C25.247 36.8189 25.2738 36.9295 25.2202 37.01L25.0392 37.2814C25.0024 37.3384 24.9286 37.3686 24.8616 37.3484L23.3938 36.9664C23.3703 36.9597 23.3468 36.9597 23.32 36.9664L19.3856 37.7439C19.3521 37.7506 19.3186 37.7439 19.2885 37.7338L15.2837 35.9275C15.2301 35.9041 15.1932 35.8504 15.1865 35.7901L14.8447 30.2036C14.8413 30.1332 14.8815 30.0661 14.9486 30.0393L19.2415 28.4307C19.2684 28.4207 19.2985 28.4173 19.3253 28.424L27.9113 29.8215C27.9515 29.8282 27.9917 29.8215 28.0252 29.798L31.0816 27.8107C31.1285 27.7806 31.1553 27.7303 31.1553 27.6733V22.8308C31.1553 22.7604 31.1084 22.6967 31.0447 22.6766L27.8107 21.6176C27.7839 21.6076 27.7571 21.6076 27.7303 21.6109L17.9748 23.5111C17.9379 23.5178 17.901 23.5111 17.8675 23.4943L11.7917 20.2872C11.7381 20.257 11.7045 20.2 11.7045 20.1397L11.852 13.6684C11.852 13.6114 11.8822 13.5612 11.9324 13.531L19.5365 9.0135C19.5666 8.99339 19.6035 8.98669 19.6403 8.99339L25.7028 9.80104C25.7329 9.80439 25.7631 9.80104 25.7933 9.78764L28.8798 8.3667C28.9133 8.34995 28.9535 8.34659 28.9904 8.35665L30.914 8.8828C30.9408 8.8895 30.9676 8.90626 30.9844 8.92301L33.6118 11.5437C33.6118 11.5437 33.6386 11.5772 33.6453 11.594L34.3189 13.1758C34.3356 13.2126 34.3356 13.2528 34.3256 13.2897L34.0139 14.2716C34.0005 14.3152 33.967 14.3521 33.9234 14.3722H33.9268Z" fill="#242A2B"/>
</g>
<defs>
<clipPath id="clip0_1842_6609">
<rect width="38" height="38" fill="white" transform="translate(4 4)"/>
</clipPath>
</defs>
</svg>
