<svg width="74" height="73" viewBox="0 0 74 73" fill="none" xmlns="http://www.w3.org/2000/svg">
<circle cx="37" cy="36.5" r="36.5" fill="#DCD383"/>
<g clip-path="url(#clip0_1869_7017)">
<path d="M58.6142 13.4286L56.3212 16.2111L51.3296 21.2468C51.1929 21.3702 50.9857 21.3702 50.849 21.2468L47.5242 17.5824L46.3953 16.3169C46.263 16.1537 46.0117 16.1405 45.8618 16.2904L43.8113 18.2703C43.6702 18.4114 43.6702 18.6407 43.8113 18.7774L46.6026 21.7759L50.6461 25.9253C50.8887 26.1723 51.2855 26.1811 51.5369 25.943L56.7269 20.2679L61.0439 15.801C61.1762 15.6599 61.1762 15.4394 61.0395 15.2983L59.1478 13.4066C59.0023 13.2611 58.7597 13.2699 58.623 13.4242L58.6142 13.4286Z" fill="#242A2B"/>
<path d="M51.2062 51.0554L47.7358 45.4552L47.7138 45.4244L43.6746 40.8517C43.56 40.7238 43.6261 40.5165 43.7981 40.4812L46.9553 39.8154C47.1097 39.7845 47.1846 39.6037 47.0964 39.4715L42.4973 32.4206C42.4135 32.2883 42.484 32.1119 42.6384 32.0766L45.2268 31.4946C45.3899 31.4593 45.4561 31.2609 45.3503 31.133L40.0323 24.7083C40.0323 24.7083 40.0235 24.695 40.0191 24.6906L34.1191 15.9553C34.0265 15.8186 33.8193 15.823 33.7399 15.9685L31.0721 20.5721C31.0721 20.5721 31.0589 20.5897 31.0545 20.5985L22.9806 30.9213C22.8791 31.0492 22.9453 31.2388 23.0996 31.2785L25.7277 31.962C25.882 32.0017 25.9482 32.1869 25.8512 32.3147L20.4098 39.5773C20.3128 39.7096 20.3833 39.8992 20.5421 39.9345L23.2451 40.4989C23.4083 40.5342 23.4788 40.7282 23.3774 40.8605L20.2775 44.7894L15.912 50.4469C15.8106 50.5791 15.8812 50.7687 16.0443 50.804L23.933 52.4753C23.933 52.4753 23.9727 52.4797 23.9903 52.4797L31.2397 52.1666C31.3631 52.1622 31.469 52.2592 31.4734 52.3827L31.6012 56.219C31.6012 56.219 31.6012 56.2542 31.6012 56.2719L30.7105 60.4213C30.6841 60.5624 30.7899 60.6947 30.9354 60.6903L36.2489 60.6285C36.3592 60.6285 36.4518 60.5447 36.4694 60.4345L37.0647 56.8363C37.0647 56.8363 37.0647 56.8143 37.0647 56.801L36.9809 52.5458C36.9809 52.4267 37.0691 52.3297 37.1882 52.3165L42.3165 51.8623C42.3165 51.8623 42.3297 51.8623 42.3385 51.8623L50.9283 51.5933C51.1973 51.5845 51.3561 51.2891 51.215 51.0598L51.2062 51.0554ZM21.7503 48.0128L25.6042 43.7311C25.6042 43.7311 25.6307 43.7002 25.6395 43.6826L28.541 37.8708C28.616 37.7253 28.5101 37.5533 28.347 37.5445L26.1554 37.4607C25.9702 37.4519 25.8732 37.2402 25.9879 37.0947L28.2897 34.1888C28.2897 34.1888 28.3029 34.1712 28.3073 34.1623L30.7326 29.9777C30.8075 29.8498 30.737 29.6822 30.5959 29.647L28.4308 29.0914C28.2676 29.0517 28.2059 28.8532 28.3161 28.7254L30.8781 25.7886C30.8781 25.7886 30.8869 25.7798 30.8913 25.7754L34 21.5598C34.0971 21.4275 34.2955 21.4408 34.3793 21.5819L36.7913 25.8768C36.7913 25.8768 36.8133 25.9121 36.8266 25.9253L39.9485 29.0473C40.072 29.1707 40.0103 29.3868 39.8383 29.4265L36.6811 30.1452C36.5135 30.1849 36.4518 30.3834 36.562 30.5112L39.49 33.8801C39.49 33.8801 39.5032 33.8978 39.512 33.911L41.4125 36.9889C41.4963 37.1256 41.4125 37.302 41.2582 37.3284L38.1891 37.8532C38.0348 37.8796 37.951 38.056 38.0348 38.1883L40.4997 42.3068C40.4997 42.3068 40.513 42.3289 40.5218 42.3377L45.0239 47.6909C45.143 47.832 45.0548 48.0436 44.8696 48.0613L35.2876 48.9123C35.2876 48.9123 35.27 48.9123 35.2612 48.9123L27.1785 48.6433L21.909 48.3832C21.7194 48.3744 21.6268 48.1495 21.7547 48.0084L21.7503 48.0128Z" fill="#242A2B"/>
</g>
<defs>
<clipPath id="clip0_1869_7017">
<rect width="50" height="50" fill="white" transform="translate(13.5 12)"/>
</clipPath>
</defs>
</svg>
