<svg width="52" height="23" viewBox="0 0 52 23" fill="none" xmlns="http://www.w3.org/2000/svg">
<path d="M34.6223 6.06238C34.6306 6.36501 35.0285 6.4722 35.189 6.21493C35.912 5.05474 37.2737 3.04852 38.6933 1.89411C41.4531 -0.35124 45.2619 -0.590369 46.9098 1.15693C48.5569 2.90422 48.5081 6.04837 48.5362 10.1185C48.5627 13.9735 48.1854 16.9947 51.4234 16.707C51.7336 16.6797 52 16.9255 52 17.2355V21.1869C52 21.4351 51.8288 21.6495 51.5864 21.7048C50.3967 21.9736 46.9065 22.4469 44.6224 19.4677C44.6124 19.4545 44.6025 19.4413 44.5934 19.4273C43.1722 17.2776 43.3401 13.7178 43.3401 11.409C43.3401 9.10015 43.4882 6.20916 42.2208 6.20916C40.9534 6.20916 39.2145 7.74619 36.3 11.7462C33.3855 15.7463 30.682 22.0066 24.5139 21.8796C21.079 21.7996 19.5701 20.867 17.7013 19.3423C17.5102 19.1865 17.2355 19.1807 17.0386 19.33C14.9092 20.9428 13.1091 21.9002 9.89676 22.0198C6.52232 22.1459 2.51583 20.7606 0.56926 15.433C0.563469 15.4173 0.558505 15.4016 0.553542 15.3851C-0.177768 12.7333 0.00588694 3.1384 0.0621415 0.797408C0.0687597 0.509627 0.30536 0.279568 0.594905 0.279568H5.08534C5.37654 0.279568 5.61314 0.512101 5.61811 0.802355C5.64954 2.75497 5.75709 9.63449 5.75709 12.0447C5.75709 14.8657 7.362 16.5923 9.55924 16.5923C11.7565 16.5923 14.2904 15.4552 14.2904 12.4661C14.2904 9.91072 14.2391 2.83248 14.2242 0.828742C14.2217 0.53354 14.4608 0.293586 14.757 0.293586H19.6222C19.9134 0.293586 20.15 0.526119 20.1549 0.815548C20.188 2.88773 20.313 10.5044 20.3858 12.2097C20.4701 14.1887 21.6829 16.42 24.8936 16.42C27.4565 16.42 29.0754 13.8514 29.0754 11.2968V2.58099C29.0754 2.28743 29.3137 2.04995 29.6082 2.04995H33.9903C34.2773 2.04995 34.5131 2.27754 34.523 2.56367L34.6223 6.06238Z" fill="#242A2B"/>
</svg>
