<svg width="77" height="31" viewBox="0 0 77 31" fill="none" xmlns="http://www.w3.org/2000/svg">
<path d="M76.8384 23.1878V29.6493C76.8384 29.8736 76.6915 30.0834 76.4712 30.1485C73.2256 31.1398 70.2885 30.4235 67.6818 28.9619C63.5624 26.6537 63.6505 19.0779 63.746 13.7235C63.8414 8.36186 60.8675 8.57169 59.4357 10.1201C51.2777 18.8898 48.0322 27.5726 41.7173 29.1428C33.0673 31.299 30.4312 29.0921 26.7671 26.8491C26.5762 26.7333 26.3192 26.755 26.1503 26.8997C22.4128 30.0255 18.8294 31.0819 14.4457 30.9951C9.94451 30.901 2.72644 27.6667 1.50752 17.9709C0.472171 9.74387 0.920088 3.44159 1.08163 1.71949C1.10366 1.45177 1.33129 1.24917 1.60298 1.24917H8.67419C8.96057 1.24917 9.19554 1.47348 9.20288 1.75567C9.2396 4.02044 9.38645 13.2387 9.38645 16.3066C9.38645 19.816 11.0753 22.5872 15.0111 22.5872C18.9469 22.5872 21.6638 21.3861 21.6638 14.3675V0.938036C21.6638 0.648608 21.8988 0.417066 22.1925 0.417066H30.7176C31.004 0.417066 31.2316 0.634137 31.2463 0.909093C31.3197 2.89167 31.5987 10.3734 31.5987 14.2734C31.5987 18.803 33.1921 21.9433 36.9444 22.0301C40.6966 22.1241 42.7599 18.6148 42.7599 13.7235C42.7599 9.55575 42.5543 2.79037 42.4883 0.858443C42.4809 0.569015 42.7159 0.323002 43.0169 0.323002H49.6549C49.9413 0.323002 50.1689 0.540073 50.1836 0.822265L50.4773 8.13031C50.4994 8.61511 51.1162 8.81047 51.4172 8.43421C52.7463 6.77 55.3677 3.66589 57.7542 1.90762C61.1319 -0.588695 70.2224 -1.88388 71.1623 6.15497C72.0948 14.1866 70.2224 20.5612 73.2183 22.5004C74.1435 23.101 75.1054 23.1299 76.0967 22.7175C76.4492 22.5728 76.8457 22.8043 76.8457 23.1878H76.8384Z" fill="#FEFAF4"/>
</svg>
