<svg width="177" height="28" viewBox="0 0 177 28" fill="none" xmlns="http://www.w3.org/2000/svg">
<path d="M177 21.548C177 21.1655 176.657 20.874 176.263 20.9105C172.178 21.252 172.652 17.5682 172.62 12.8691C172.582 7.9013 172.643 4.0673 170.563 1.93629C168.479 -0.194715 163.662 0.0967051 160.173 2.83787C158.375 4.24944 156.652 6.69919 155.736 8.11531C155.535 8.4295 155.032 8.29289 155.023 7.92407L154.901 3.65749C154.887 3.30688 154.591 3.02912 154.225 3.02912H148.685C148.314 3.02912 148.008 3.32054 148.008 3.68481V14.3125C148.008 16.8807 147.206 18.6292 144.83 20.0408C138.205 23.2282 133.074 20.5553 131.177 17.5455C134.337 15.3234 137.412 13.2061 138.384 12.3045C144.257 7.74193 140.21 0.506514 134.656 0.30161C129.102 0.101258 123.388 4.32685 123.106 12.3045C123.064 13.5476 123.149 14.7633 123.36 15.9336C118.43 19.7539 114.914 21.7529 111.946 21.0653C109.683 20.4005 107.988 19.0162 107.059 17.55C110.219 15.328 113.294 13.2106 114.266 12.309C120.139 7.74648 116.092 0.511068 110.538 0.306163C104.984 0.105812 99.2698 4.3314 98.9881 12.309C98.9459 13.5521 99.0304 14.7679 99.2417 15.9381C97.4294 17.204 95.3401 18.1875 93.8941 18.9388C93.434 14.8954 84.4712 3.21581 82.9829 1.05293C82.7529 0.715973 82.3679 0.520175 81.95 0.520175H78.0156C77.5226 0.520175 77.0719 0.802488 76.8747 1.24417C75.9076 3.4025 72.9497 9.94124 70.5177 14.7861C68.081 19.6401 66.0716 20.6327 64.818 20.8148C60.9446 21.0243 61.4001 17.3907 61.3672 12.7644C61.3296 7.79657 61.3954 3.96257 59.3108 1.83157C57.2262 -0.299444 52.4092 -0.00802422 48.9161 2.72859C47.1226 4.1356 45.3996 6.58535 44.484 8.00147C44.2822 8.31566 43.7798 8.18361 43.7657 7.81478L43.6389 3.54821C43.6249 3.1976 43.3291 2.91984 42.9676 2.91984H37.4181C37.0472 2.91984 36.7514 3.21126 36.7514 3.56642V15.2323C36.7514 18.1056 34.3335 20.487 31.3475 20.446C27.3755 20.3959 25.8684 17.7003 25.7604 15.3097C25.6665 13.2288 25.5116 3.93525 25.4693 1.4081C25.4646 1.05293 25.1642 0.770614 24.798 0.770614H18.6428C18.2672 0.770614 17.9668 1.06203 17.9714 1.42631C17.9902 3.87151 18.056 12.5048 18.056 15.6239C18.056 19.2712 14.854 20.6555 12.0699 20.6555C9.28572 20.6555 7.26219 18.5472 7.26219 15.1094C7.26219 12.1679 7.12603 3.77588 7.08847 1.39443C7.08378 1.03927 6.7833 0.756953 6.41709 0.756953H0.75024C0.384031 0.761507 0.0835523 1.04382 0.0788573 1.39443C0.00843251 4.24944 -0.226317 15.9609 0.698595 19.1938L0.717375 19.2394C3.17755 25.7462 8.24813 27.4401 12.5159 27.2853C16.5723 27.1396 18.8494 25.9739 21.5349 24.0114C21.7885 23.8247 22.1453 23.8292 22.3941 24.025C24.7557 25.8783 26.6619 27.0166 31 27.1123C38.7984 27.2671 42.2164 19.631 45.9066 14.7497C49.5922 9.86838 51.7894 7.99237 53.3951 7.99237C55.0008 7.99237 54.8083 11.5213 54.8083 14.3353C54.8083 17.1493 54.597 21.4888 56.3905 24.1115L56.4281 24.1662C58.5314 26.8163 61.447 27.135 63.4565 27.1259C71.2642 27.0986 73.8981 22.0124 75.5179 18.8341C76.8278 16.2569 79.2927 11.4621 80.18 9.73633C80.3256 9.44947 80.7105 9.40393 80.9922 9.66348C81.8937 10.4831 86.1755 14.6859 87.7249 18.957C88.2225 20.3231 87.0582 21.7164 85.5745 21.5297C84.4243 21.384 83.0064 20.7283 82.0862 20.3003C81.8045 20.1683 81.4336 20.2867 81.2692 20.5416L79.6636 24.5805C79.4617 24.8947 79.579 25.3045 79.9171 25.4867C85.983 28.7151 94.6593 27.3764 101.415 22.0488L101.448 22.067C101.448 22.067 101.528 22.0079 101.669 21.8986C104.232 24.535 107.852 27.1168 114.078 27.1168C119.238 27.1168 123.008 24.0341 125.778 21.8895C129.247 25.4548 132.989 27.3126 139.849 27.2306C149.783 27.1077 153.558 19.5763 157.136 14.8407C160.821 9.95945 163.018 8.08344 164.619 8.08344C166.22 8.08344 166.037 11.6124 166.037 14.4264C166.037 17.2404 165.826 21.5753 167.615 24.2026L167.657 24.2618C170.549 27.9046 174.976 27.3172 176.469 26.9893C176.775 26.921 176.986 26.6615 176.986 26.3609V21.5343L177 21.548ZM108.434 6.0526C111.073 5.27396 112.195 7.57345 110.298 9.13073C109.364 9.8957 107.716 10.902 105.514 12.3409C104.88 9.06242 106.514 6.61723 108.434 6.0526ZM132.543 6.04805C135.182 5.26941 136.304 7.5689 134.407 9.12617C133.473 9.89115 131.825 10.8975 129.623 12.3363C128.989 9.05787 130.623 6.61267 132.543 6.04805Z" fill="#242A2B"/>
</svg>
