<svg width="300" height="329" viewBox="0 0 300 329" fill="none" xmlns="http://www.w3.org/2000/svg">
<path d="M65.3988 321.394L71.2238 299.569C71.645 298.001 73.1898 297.018 74.7863 297.314C85.4619 299.34 123.461 304.6 134.161 279.583C147.52 248.356 96.4705 223.694 60.5325 200.307C26.2873 178.023 -15.435 144.085 6.72404 98.1453C32.1259 45.4769 91.8211 59.358 148.571 75.5761C215.155 94.6098 269.406 90.3084 267.575 3.64208C267.545 1.91015 268.939 0.484033 270.674 0.489576C280.256 0.495839 290.519 0.377846 295.314 0.313817C296.924 0.291423 298.272 1.4922 298.438 3.08964C299.791 15.5802 302.729 66.6937 265.396 96.6402C222.641 130.935 161.108 113.516 135.582 105.635C110.056 97.753 55.3936 75.0275 36.2182 110.702C19.8845 141.098 60.0026 167.555 76.5564 177.851C93.1102 188.148 181.385 231.011 162.931 286.619C145.763 338.349 82.6651 328.376 67.7449 325.23C66.0062 324.869 64.9325 323.115 65.3988 321.394Z" fill="#FFFCF8"/>
</svg>
