<svg width="335" height="296" viewBox="0 0 335 296" fill="none" xmlns="http://www.w3.org/2000/svg">
<path d="M5.81258 71.9537L27.8239 77.0298C29.4059 77.3971 30.4409 78.9075 30.1994 80.5132C28.5395 91.2517 24.5801 129.409 49.9483 139.247C81.6136 151.532 104.518 99.6699 126.663 62.9541C147.764 27.9678 180.258 -14.8895 226.927 5.68743C280.433 29.2754 268.599 89.41 254.328 146.681C237.58 213.876 243.732 267.949 330.285 263.159C332.015 263.069 333.488 264.414 333.542 266.148C333.863 275.724 334.331 285.978 334.559 290.767C334.637 292.375 333.483 293.763 331.892 293.984C319.455 295.763 268.471 300.446 237.267 264.157C201.531 222.599 216.839 160.506 223.844 134.726C230.849 108.946 251.694 53.539 215.385 35.5933C184.449 20.3074 159.378 61.3058 149.653 78.2016C139.928 95.0974 100.105 184.785 43.8995 168.241C-8.38666 152.85 -0.57548 89.4484 2.05925 74.4294C2.36126 72.6794 4.07757 71.5464 5.81258 71.9537Z" fill="#FFFCF8"/>
</svg>
