<svg width="37" height="37" viewBox="0 0 37 37" fill="none" xmlns="http://www.w3.org/2000/svg">
<path d="M18.6413 36.2572C28.449 36.2572 36.3997 28.3064 36.3997 18.4987C36.3997 8.69097 28.449 0.740234 18.6413 0.740234C8.83355 0.740234 0.882812 8.69097 0.882812 18.4987C0.882812 28.3064 8.83355 36.2572 18.6413 36.2572Z" fill="#797124"/>
<path d="M28.1503 15.9603C28.1503 13.6055 26.2411 11.6963 23.8864 11.6963H12.9808C10.626 11.6963 8.7168 13.6055 8.7168 15.9603V21.0337C8.7168 23.3884 10.626 25.2977 12.9808 25.2977H23.8864C26.2411 25.2977 28.1503 23.3884 28.1503 21.0337V15.9603ZM21.7378 18.8776L16.8476 21.2959C16.6567 21.4003 16.005 21.2603 16.005 21.0439V16.0773C16.005 15.8559 16.6618 15.7184 16.8527 15.8279L21.5342 18.3735C21.7302 18.4855 21.9363 18.7681 21.7378 18.8776Z" fill="#FEFAF4"/>
</svg>
