<svg width="36" height="36" viewBox="0 0 36 36" fill="none" xmlns="http://www.w3.org/2000/svg">
<path d="M17.7949 35.5169C27.6026 35.5169 35.5533 27.5662 35.5533 17.7585C35.5533 7.95074 27.6026 0 17.7949 0C7.98715 0 0.0364151 7.95074 0.0364151 17.7585C0.0364151 27.5662 7.98715 35.5169 17.7949 35.5169Z" fill="#242A2B"/>
<path d="M27.303 15.22C27.303 12.8653 25.3937 10.9561 23.039 10.9561H12.1334C9.7787 10.9561 7.86946 12.8653 7.86946 15.22V20.2935C7.86946 22.6482 9.7787 24.5575 12.1334 24.5575H23.039C25.3937 24.5575 27.303 22.6482 27.303 20.2935V15.22ZM20.8904 18.1373L16.0003 20.5557C15.8093 20.6601 15.1577 20.5201 15.1577 20.3037V15.3371C15.1577 15.1156 15.8144 14.9782 16.0054 15.0876L20.6868 17.6333C20.8829 17.7453 21.089 18.0279 20.8904 18.1373Z" fill="#F8F1E4"/>
</svg>
