<svg width="176" height="139" viewBox="0 0 176 139" fill="none" xmlns="http://www.w3.org/2000/svg">
<path d="M97.428 138.677H87.6943L79.9646 136.387C79.1057 136.1 78.2469 135.814 77.6743 135.528L71.6623 132.092L64.2189 128.943C63.6463 128.943 63.36 128.657 63.0737 128.657L56.7754 127.512L51.0497 128.084L46.1829 129.802L27.288 138.391C23.8526 139.822 20.4171 138.677 18.6994 135.528L1.23597 108.044L0.949685 107.472C0.0908273 104.323 1.52226 101.174 4.38512 99.1695L35.8766 81.7061H36.4491L43.8926 78.2707L45.0377 77.9844L55.9166 75.6941C56.2029 75.6941 57.348 75.6941 58.4931 75.4078C62.7874 74.8352 64.5052 74.8352 65.9366 75.4078C67.368 75.6941 71.6623 76.5529 73.38 77.1255C74.5252 77.1255 75.384 77.6981 76.2429 78.2707L82.5412 81.4198L91.416 85.4278C91.9886 85.4278 92.2749 85.7141 92.5612 86.0004L102.295 88.0044L114.319 87.4318L119.472 86.0004L147.814 65.6741C148.959 65.1015 149.818 64.5289 151.25 64.5289H153.254C154.685 64.5289 156.117 65.1015 157.262 65.9604L158.407 66.8192C158.98 67.3918 160.411 68.8232 160.697 70.8272H160.984L164.992 69.9684H167.854L170.717 71.3998C172.721 72.2586 174.153 73.6901 174.725 75.9804V76.5529L175.298 80.2747V82.8512L173.294 87.4318C172.721 88.577 172.149 89.4358 171.576 89.7221V89.1495L116.037 129.802V130.088L107.448 135.242C107.448 135.242 107.162 135.242 107.162 135.528L106.589 135.814C106.303 135.814 106.303 135.814 106.017 136.1L97.428 138.677ZM89.1257 130.088H95.9966L102.867 127.798C103.154 127.798 103.154 127.512 103.44 127.512L108.593 124.363C108.879 124.076 109.166 123.79 109.738 123.504L165.85 82.2787L166.709 79.9884V79.7021L166.423 77.9844L165.564 77.6981L160.984 78.5569H159.552C156.403 78.5569 153.54 76.2667 152.967 73.1175L152.681 72.2586H151.822L122.621 93.1575H122.049C121.762 93.1575 121.476 93.1575 121.476 93.4438L115.464 95.1615H114.319L100.863 95.7341L88.5532 93.1575L88.2669 92.8712L78.8195 88.5769L71.376 85.1415C67.0817 84.2827 64.5052 83.7101 63.0737 83.1375C62.2149 83.1375 60.4972 83.4238 59.352 83.4238C57.9206 83.4238 56.7754 83.7101 56.2029 83.7101L48.1869 85.7141C47.9006 86.0004 47.328 86.0004 47.0417 86.2867L38.4531 90.0084L10.1108 105.754L25.284 129.516L44.4651 120.927L49.332 119.21H50.4771L57.348 118.637L66.7954 120.355L67.368 120.927L74.2389 123.79H74.8114L82.8275 128.084L89.1257 130.088ZM61.356 82.2787C61.9286 82.5649 62.5012 82.8512 62.7874 83.1375C61.9286 82.5649 61.6423 82.2787 61.356 82.2787Z" fill="black"/>
<path d="M122.336 111.766H79.6797V103.177H121.191L124.34 102.319L125.772 100.315V97.4517L123.768 95.7339C123.481 95.7339 123.481 95.4477 123.195 95.4477L117.756 92.8711L121.477 85.1414L128.062 88.5768C128.348 88.8631 128.921 89.1494 129.207 89.4356L131.497 91.4397C133.215 93.1574 134.074 95.1614 134.074 97.1654V100.601C134.074 102.605 133.501 103.75 132.929 104.609L132.643 105.181L130.925 107.472C130.066 108.903 128.348 110.048 126.631 110.621H126.344L122.336 111.766Z" fill="black"/>
<path d="M156.823 71.4968L129.386 91.205L134.396 98.1807L161.834 78.4724L156.823 71.4968Z" fill="black"/>
<path d="M102.581 74.5488C100.291 74.5488 97.7141 73.6899 95.9964 71.6859L67.3678 44.775C65.9363 43.9162 65.3638 42.4848 65.0775 41.9122L62.7872 37.0453C62.5009 36.4727 61.9283 35.6139 61.9283 34.4688L60.7832 28.1705V25.8802L61.6421 21.0133L61.9283 20.727C61.9283 20.4407 62.2146 20.1545 62.2146 19.8682L65.6501 12.711L65.9363 12.4247C66.2226 11.8522 66.5089 11.5659 66.7952 11.2796L69.6581 7.84416C70.2306 6.69902 71.0895 5.84016 72.5209 5.26758L76.2426 2.9773C76.8152 2.69101 78.5329 1.83215 80.2506 1.83215L87.9804 1.25958H91.9884C93.1335 1.25958 94.5649 1.25958 95.9964 2.11844L96.8552 2.69101L100.291 5.55387C101.15 5.84016 102.008 6.41273 102.295 6.69901L103.154 7.27159L103.726 6.9853L107.448 4.9813L112.601 1.54587C114.032 0.68701 115.464 0.687012 116.323 0.687012H121.476C122.048 0.687012 123.194 0.687011 124.339 1.25958L130.064 3.26358L132.355 4.69501L136.935 8.13044C138.367 8.9893 139.226 10.707 139.798 11.5659L141.516 15.2876C141.802 15.8602 142.088 16.4327 142.375 17.0053L144.379 23.0173C144.951 24.4487 144.951 25.8802 144.951 27.0253V27.5979L144.092 33.3236C144.092 35.0413 143.52 36.759 142.375 37.9042L138.08 44.2025L137.222 45.0613L108.879 71.9722C107.162 73.6899 104.871 74.5488 102.581 74.5488ZM72.5209 38.1905L101.722 65.6739C102.008 65.9602 102.581 65.9602 102.867 65.6739L131.782 38.1905L135.79 31.8922L136.649 26.1665C136.649 25.8802 136.649 25.8802 136.649 25.8802L134.359 19.0093L132.355 15.0013L126.629 10.9933L121.19 9.27559H116.036L110.597 13.2836H110.024C110.024 13.2836 110.024 13.2836 109.738 13.2836L107.734 14.4287C104.871 16.4327 100.577 16.4327 97.7141 14.1424L96.8552 13.5699H96.2826L91.7021 9.84816H87.4078L80.5369 10.4207H80.2506L76.8152 12.4247L73.0935 16.719C72.8072 17.0053 72.8072 17.0053 72.8072 17.2916L69.9443 23.5899C69.9443 23.8762 69.6581 24.1625 69.6581 24.4487L69.3718 26.739V27.5979L70.5169 32.751L70.8032 33.0373L72.5209 38.1905Z" fill="black"/>
</svg>
