<svg width="232" height="109" viewBox="0 0 232 109" fill="none" xmlns="http://www.w3.org/2000/svg">
<path d="M188.358 57.2145C187.885 57.2145 187.175 57.2145 186.702 56.978L178.426 55.7957C176.535 55.5593 174.879 54.6134 173.461 53.6676L167.785 48.9383C166.84 48.2289 166.13 47.2831 165.421 46.1007L162.583 41.6079C161.874 40.1892 161.164 38.7704 161.164 37.1151L160.455 29.5483C160.455 29.0754 160.455 28.366 160.455 27.8931L160.928 21.745C160.928 20.3262 161.401 19.1439 161.874 17.9616L164.238 12.7594C164.948 11.3406 165.657 10.3948 166.84 9.44895L171.569 5.1926C172.751 4.01029 174.406 3.3009 176.062 2.82797L185.993 0.463337C187.648 -0.00958901 189.304 -0.00958901 190.959 0.463337L200.89 2.82797C202.546 3.3009 204.201 4.01029 205.383 5.1926L210.112 9.44895C211.295 10.3948 212.004 11.5771 212.713 12.7594L215.078 17.9616C215.787 19.1439 216.024 20.5627 216.024 21.9815L216.497 28.1295C216.497 28.6025 216.497 29.0754 216.497 29.7848L215.551 36.8787C215.315 38.5339 214.842 39.9527 214.132 41.3715L211.295 45.8643C210.585 46.8101 209.876 47.756 208.93 48.4654L203.255 53.1946C201.836 54.3769 200.181 55.0863 198.289 55.3228L190.013 56.7416C189.54 57.2145 188.831 57.2145 188.358 57.2145ZM188.358 7.32077C188.121 7.32077 187.885 7.32077 187.412 7.32077L177.48 9.68541C177.007 9.92187 176.298 10.1583 176.062 10.3948L171.332 14.6511C170.859 14.8876 170.623 15.3605 170.387 15.8334L168.022 21.0356C167.785 21.5086 167.785 21.9815 167.785 22.218L167.312 28.366C167.312 28.6025 167.312 28.8389 167.312 28.8389L168.022 36.4057C168.022 36.8787 168.258 37.3516 168.495 37.8245L171.332 42.3173C171.569 42.5538 171.805 43.0267 172.042 43.2632L177.717 47.9924C178.19 48.4654 178.663 48.7018 179.372 48.7018L187.648 50.1206C188.121 50.1206 188.358 50.1206 188.831 50.1206L197.107 48.7018C197.816 48.7018 198.289 48.2289 198.762 47.9924L204.437 43.2632C204.674 43.0267 204.91 42.7902 205.147 42.3173L207.984 37.8245C208.221 37.3516 208.457 36.8787 208.457 36.4057L209.166 28.8389C209.166 28.6025 209.166 28.6025 209.166 28.366L208.694 22.218C208.694 21.745 208.457 21.2721 208.457 20.7992L206.092 15.597C205.856 15.1241 205.62 14.8876 205.147 14.4147L200.417 10.1583C199.944 9.68541 199.471 9.44895 198.999 9.44895L189.067 7.08431C188.831 7.32078 188.594 7.32077 188.358 7.32077Z" fill="black"/>
<path d="M225.246 109H150.523C146.976 109 143.902 105.926 143.902 102.379V85.8266C143.902 85.3537 143.902 85.1172 143.902 84.6443L145.321 77.5504C145.558 76.841 145.558 76.1316 146.031 75.6587L150.05 68.3283C150.287 67.8554 150.76 67.146 151.233 66.6731L156.198 61.7074C156.671 61.2344 157.144 60.998 157.617 60.525L163.292 57.451C165.184 56.2687 167.549 56.5052 169.677 57.451L173.933 59.8156L183.392 62.8897L191.668 62.6532L202.545 59.8156L206.802 57.451C208.693 56.5052 210.821 56.2687 212.713 57.2146L214.605 57.924C215.078 58.1604 215.314 58.3969 215.787 58.6333L221.226 62.4168C221.699 62.8897 222.172 63.1261 222.645 63.5991L227.137 69.2742C227.61 69.7471 227.847 70.4565 228.083 70.9294L230.921 78.2598C231.157 78.9692 231.394 79.4421 231.394 80.1515L231.867 89.1371V101.906C231.867 106.162 229.029 109 225.246 109ZM150.996 101.906H224.773V89.61L224.3 81.0973L221.462 74.0034L216.969 68.5648L211.767 65.0178L210.349 64.3084L206.092 66.6731C205.619 66.9095 205.146 67.146 204.437 67.3825L193.323 70.22C193.087 69.9836 192.614 69.9836 192.141 69.9836L183.628 70.22C182.919 70.22 182.209 70.22 181.5 69.9836L172.041 66.9095C171.569 66.6731 171.096 66.6731 170.859 66.4366L166.839 64.072L161.401 66.9095L156.198 71.8753L152.415 78.9692L151.233 85.8266L150.996 101.906Z" fill="black"/>
<path d="M44.3514 57.2145C43.8785 57.2145 43.1691 57.2145 42.6961 56.978L34.4199 55.7957C32.5282 55.5593 30.873 54.6134 29.4542 53.6676L23.7791 48.7018C22.8332 47.9924 22.1238 47.0466 21.4145 45.8643L18.5769 41.6079C17.631 40.1892 17.1581 38.7704 17.1581 37.1151L16.4487 29.5483C16.4487 29.0754 16.4487 28.366 16.4487 27.8931L16.9217 21.745C16.9217 20.3262 17.3946 19.1439 17.8675 17.9616L20.2321 12.7594C20.9415 11.5771 21.6509 10.3948 22.8332 9.44895L27.5625 5.1926C28.7448 4.01029 30.4001 3.3009 32.0553 2.82797L41.9868 0.463337C43.642 -0.00958901 45.2972 -0.00958901 46.9525 0.463337L56.8839 2.82797C58.5392 3.3009 60.1944 4.01029 61.3767 5.1926L66.106 9.44895C67.2883 10.3948 67.9977 11.5771 68.7071 12.7594L71.0717 17.9616C71.5447 19.1439 72.0176 20.5627 72.0176 21.9815L72.4905 28.1295C72.4905 28.6025 72.4905 29.0754 72.4905 29.7848L71.7811 36.8787C71.5447 38.5339 71.0717 39.9527 70.3623 41.3715L67.5248 45.8643C66.8154 46.8101 66.106 47.756 65.1602 48.4654L59.2486 53.4311C57.8298 54.6134 56.1745 55.3228 54.2828 55.5593L46.0066 56.978C45.5337 57.2145 45.0608 57.2145 44.3514 57.2145ZM44.3514 7.32077C44.1149 7.32077 43.8785 7.32077 43.4055 7.32077L33.4741 9.68541C33.0012 9.92187 32.2918 10.1583 32.0553 10.3948L27.326 14.6511C26.8531 14.8876 26.6166 15.3605 26.3802 15.8334L24.0156 21.0356C23.7791 21.5086 23.7791 21.9815 23.7791 22.218L23.3062 28.366C23.3062 28.6025 23.3062 28.8389 23.3062 28.8389L24.0156 36.4057C24.0156 36.8787 24.252 37.3516 24.4885 37.8245L27.326 42.3173C27.5625 42.5538 27.799 43.0267 28.0354 43.2632L33.7105 47.9924C34.1835 48.4654 34.6564 48.7018 35.3658 48.7018L43.642 50.1206C44.1149 50.1206 44.3514 50.1206 44.8243 50.1206L53.1005 48.7018C53.8099 48.7018 54.2828 48.2289 54.7558 47.9924L60.4309 43.2632C60.6674 43.0267 60.9038 42.7902 61.1403 42.3173L63.9778 37.8245C64.2143 37.3516 64.4508 36.8787 64.4508 36.4057L65.1602 28.8389C65.1602 28.6025 65.1602 28.6025 65.1602 28.366L64.6872 22.218C64.6872 21.745 64.4508 21.2721 64.4508 20.7992L62.0861 15.597C61.8497 15.1241 61.6132 14.8876 61.1403 14.4147L56.411 10.1583C55.9381 9.68541 55.4652 9.44895 54.9922 9.44895L45.0608 7.08431C45.0608 7.32078 44.8243 7.32077 44.3514 7.32077Z" fill="black"/>
<path d="M81.4766 109H6.75427C3.20732 109 0.133301 105.926 0.133301 102.379V85.8266C0.133301 85.3537 0.133301 85.1172 0.133301 84.6443L1.55208 77.5504C1.78854 76.841 2.02501 76.1316 2.26147 75.6587L6.28134 68.3283C6.51781 67.6189 6.99073 67.146 7.46366 66.6731L12.4294 61.7074C12.9023 61.2344 13.3752 60.998 13.8482 60.525L19.5233 57.451C21.415 56.2687 23.7796 56.5052 25.9078 57.451L30.1641 59.8156L39.6227 62.8897L47.8989 62.6532L58.7762 59.8156L63.0325 57.451C64.9242 56.5052 67.0524 56.2687 68.9441 57.2146L70.8358 57.924C71.3087 58.1604 71.5452 58.3969 72.0181 58.6333L77.4568 62.4168C77.9297 62.8897 78.4026 63.1261 78.8755 63.5991L83.3683 69.2742C83.8413 69.7471 84.0777 70.4565 84.3142 71.1659L87.1518 78.4962C87.3882 79.2056 87.6247 79.6786 87.6247 80.388L88.0976 89.3735V102.143C88.0976 106.162 85.0236 109 81.4766 109ZM7.2272 101.906H81.0037V89.61L80.5308 81.0973L77.6932 74.0034L73.2004 68.5648L67.9982 65.0178L66.343 64.072L62.0867 66.4366C61.6137 66.6731 61.1408 66.9096 60.4314 67.146L49.3176 69.9836C49.0812 69.9836 48.6083 69.9836 48.1353 69.9836L39.6227 70.22C38.9133 70.22 38.2039 70.22 37.4945 69.9836L27.7995 66.9095C27.3266 66.6731 26.8536 66.6731 26.6172 66.4366L22.5973 64.072L17.1586 66.9095L12.1929 71.8753L8.40951 78.9692L7.2272 86.0631V101.906Z" fill="black"/>
<path d="M114.818 95.2851L106.778 84.1713C106.305 83.4619 105.596 82.5161 105.123 81.8067L101.103 74.4763C100.394 73.294 99.9207 72.1117 99.4478 70.9294L97.3196 64.3084C96.6102 62.4167 96.3737 60.2885 96.1373 58.3968L95.6644 52.7217C95.4279 50.83 95.6643 48.9383 95.9008 47.283L97.0831 40.4256C97.3196 38.5339 98.029 36.4057 98.7384 34.7505L100.394 30.9671C101.103 29.5483 101.812 28.1295 102.758 26.7107L107.015 20.7992C107.488 20.0898 108.197 19.3804 108.906 18.671L115.764 11.3406L120.966 16.3064L114.108 23.6367C113.636 24.1097 113.163 24.5826 112.926 25.0555L108.906 30.7306C108.197 31.6765 107.724 32.6223 107.251 33.5682L105.596 37.3516C105.123 38.5339 104.65 39.9527 104.413 41.3715L103.231 48.2289C102.995 49.4112 102.995 50.83 102.995 52.0123L103.468 57.6874C103.468 59.1062 103.941 60.525 104.413 61.7073L106.542 68.3283C106.778 69.2741 107.251 69.9835 107.724 70.9294L111.744 78.2597C111.98 78.9691 112.453 79.442 112.926 79.915L120.729 90.7923L114.818 95.2851Z" fill="black"/>
<path d="M130.424 77.7868L125.931 71.6388C125.458 71.1659 125.222 70.6929 124.986 69.9836L122.621 65.9637C122.148 65.2543 121.912 64.5449 121.675 63.599L120.493 60.0521C120.02 58.8698 119.783 57.6875 119.783 56.2687L119.547 52.9582C119.547 51.7759 119.547 50.5936 119.783 49.4112L120.493 45.6278C120.729 44.4455 120.966 43.2632 121.675 42.0809L122.621 39.9527C123.094 39.0069 123.567 38.061 124.04 37.3516L126.404 34.0411C126.641 33.5682 127.114 33.0953 127.587 32.6224L131.606 28.366L136.809 33.3318L132.552 37.8246C132.316 38.061 132.079 38.2975 132.079 38.5339L129.715 41.8444C129.478 42.3174 129.242 42.7903 129.005 43.2632L127.823 45.1549C127.587 45.6278 127.35 46.3372 127.35 47.0466L126.641 50.83C126.641 51.303 126.404 52.0123 126.641 52.7217L126.877 56.0322C126.877 56.7416 127.114 57.2145 127.35 57.9239L128.532 61.4709C128.769 61.9438 128.769 62.1803 129.005 62.6532L131.37 66.6731C131.606 66.9095 131.607 67.146 131.843 67.3825L136.336 73.5305L130.424 77.7868Z" fill="black"/>
</svg>
